<svg width="48" height="48" viewBox="0 0 48 48" fill="none" xmlns="http://www.w3.org/2000/svg">
<path d="M26.9163 19.0106C26.6042 19.0106 26.3506 18.7574 26.3506 18.445V17.4836C26.3506 17.1716 26.6038 16.918 26.9163 16.918C27.2283 16.918 27.4819 17.1712 27.4819 17.4836V18.445C27.4819 18.7574 27.2283 19.0106 26.9163 19.0106Z" fill="#103E13"/>
<path d="M24.5378 19.0106C24.2258 19.0106 23.9722 18.7574 23.9722 18.445V17.4836C23.9722 17.1716 24.2254 16.918 24.5378 16.918C24.8499 16.918 25.1035 17.1712 25.1035 17.4836V18.445C25.1031 18.7574 24.8503 19.0106 24.5378 19.0106Z" fill="#103E13"/>
<path d="M22.1599 19.0106C21.8479 19.0106 21.5942 18.7574 21.5942 18.445V17.4836C21.5942 17.1716 21.8475 16.918 22.1599 16.918C22.4719 16.918 22.7256 17.1712 22.7256 17.4836V18.445C22.7256 18.7574 22.4723 19.0106 22.1599 19.0106Z" fill="#103E13"/>
<path d="M26.9163 22.9419C26.6042 22.9419 26.3506 22.6886 26.3506 22.3762V21.4153C26.3506 21.1033 26.6038 20.8496 26.9163 20.8496C27.2283 20.8496 27.4819 21.1029 27.4819 21.4153V22.3762C27.4819 22.6886 27.2283 22.9419 26.9163 22.9419Z" fill="#103E13"/>
<path d="M24.5378 22.9419C24.2258 22.9419 23.9722 22.6886 23.9722 22.3762V21.4153C23.9722 21.1033 24.2254 20.8496 24.5378 20.8496C24.8499 20.8496 25.1035 21.1029 25.1035 21.4153V22.3762C25.1031 22.6886 24.8503 22.9419 24.5378 22.9419Z" fill="#103E13"/>
<path d="M22.1599 22.9419C21.8479 22.9419 21.5942 22.6886 21.5942 22.3762V21.4153C21.5942 21.1033 21.8475 20.8496 22.1599 20.8496C22.4719 20.8496 22.7256 21.1029 22.7256 21.4153V22.3762C22.7256 22.6886 22.4723 22.9419 22.1599 22.9419Z" fill="#103E13"/>
<path d="M26.9163 26.8729C26.6042 26.8729 26.3506 26.6197 26.3506 26.3073V25.3459C26.3506 25.0339 26.6038 24.7803 26.9163 24.7803C27.2283 24.7803 27.4819 25.0335 27.4819 25.3459V26.3073C27.4819 26.6197 27.2283 26.8729 26.9163 26.8729Z" fill="#103E13"/>
<path d="M24.5378 26.8729C24.2258 26.8729 23.9722 26.6197 23.9722 26.3073V25.3459C23.9722 25.0339 24.2254 24.7803 24.5378 24.7803C24.8499 24.7803 25.1035 25.0335 25.1035 25.3459V26.3073C25.1031 26.6197 24.8503 26.8729 24.5378 26.8729Z" fill="#103E13"/>
<path d="M22.1599 26.8729C21.8479 26.8729 21.5942 26.6197 21.5942 26.3073V25.3459C21.5942 25.0339 21.8475 24.7803 22.1599 24.7803C22.4719 24.7803 22.7256 25.0335 22.7256 25.3459V26.3073C22.7256 26.6197 22.4723 26.8729 22.1599 26.8729Z" fill="#103E13"/>
<path d="M26.9163 30.8036C26.6042 30.8036 26.3506 30.5504 26.3506 30.2379V29.2766C26.3506 28.9646 26.6038 28.7109 26.9163 28.7109C27.2283 28.7109 27.4819 28.9642 27.4819 29.2766V30.2379C27.4819 30.5504 27.2283 30.8036 26.9163 30.8036Z" fill="#103E13"/>
<path d="M24.5378 30.8036C24.2258 30.8036 23.9722 30.5504 23.9722 30.2379V29.2766C23.9722 28.9646 24.2254 28.7109 24.5378 28.7109C24.8499 28.7109 25.1035 28.9642 25.1035 29.2766V30.2379C25.1031 30.5504 24.8503 30.8036 24.5378 30.8036Z" fill="#103E13"/>
<path d="M22.1599 30.8036C21.8479 30.8036 21.5942 30.5504 21.5942 30.2379V29.2766C21.5942 28.9646 21.8475 28.7109 22.1599 28.7109C22.4719 28.7109 22.7256 28.9642 22.7256 29.2766V30.2379C22.7256 30.5504 22.4723 30.8036 22.1599 30.8036Z" fill="#103E13"/>
<path d="M26.9163 34.7349C26.6042 34.7349 26.3506 34.4816 26.3506 34.1692V33.2083C26.3506 32.8962 26.6038 32.6426 26.9163 32.6426C27.2283 32.6426 27.4819 32.8958 27.4819 33.2083V34.1692C27.4819 34.4812 27.2283 34.7349 26.9163 34.7349Z" fill="#103E13"/>
<path d="M24.5378 34.7349C24.2258 34.7349 23.9722 34.4816 23.9722 34.1692V33.2083C23.9722 32.8962 24.2254 32.6426 24.5378 32.6426C24.8499 32.6426 25.1035 32.8958 25.1035 33.2083V34.1692C25.1031 34.4812 24.8503 34.7349 24.5378 34.7349Z" fill="#103E13"/>
<path d="M22.1599 34.7349C21.8479 34.7349 21.5942 34.4816 21.5942 34.1692L21.5946 33.2083C21.5946 32.8962 21.8479 32.6426 22.1603 32.6426C22.4723 32.6426 22.726 32.8958 22.726 33.2083V34.1692C22.7256 34.4812 22.4723 34.7349 22.1599 34.7349Z" fill="#103E13"/>
<path d="M6.00047 38.6471C6.00047 38.9592 6.25372 39.2128 6.56615 39.2128H41.0139C41.3259 39.2128 41.5796 38.9596 41.5796 38.6471C41.5796 38.3351 41.3263 38.0815 41.0139 38.0815H39.9682V21.8402C39.9682 21.5281 39.715 21.2745 39.4025 21.2745L30.1668 21.2749V9.56576C30.1668 9.36774 30.0635 9.18471 29.8946 9.08214C29.7262 8.97919 29.5156 8.97287 29.3404 9.06399L18.8401 14.531C18.6527 14.6284 18.5359 14.8217 18.5359 15.0327V25.2604H8.37388C8.06186 25.2604 7.8082 25.5137 7.8082 25.8261V38.0816H6.56489C6.25287 38.0812 6 38.3344 6 38.6468L6.00047 38.6471ZM30.167 29.8422H38.8374V38.0819L30.167 38.0815V29.8422ZM30.167 25.9113H38.8374V28.7113L30.167 28.7109V25.9113ZM30.167 22.4056H38.8374V24.7808H30.167V22.4056ZM19.6667 15.3762L29.0353 10.4982V38.081H19.6667V15.3762ZM11.7359 33.5635C11.7359 32.3895 12.666 31.4341 13.8096 31.4341C14.9531 31.4341 15.8837 32.3891 15.8837 33.5635V38.0817H11.7359V33.5635ZM8.93952 26.3916H18.5358V38.0815H17.015V33.5633C17.015 31.7657 15.5776 30.303 13.8096 30.303C12.0424 30.303 10.605 31.7653 10.605 33.5633V38.0815H8.93952V26.3916Z" fill="#103E13"/>
</svg>
