<svg width="350" height="78" viewBox="0 0 350 78" fill="none" xmlns="http://www.w3.org/2000/svg">
<path d="M328.549 41.1901C328.07 41.2553 327.586 41.3002 327.117 41.398C326.812 41.4592 326.681 41.2798 326.478 41.1861C326.41 41.1535 326.338 41.0882 326.275 41.0963C325.801 41.1616 325.327 41.235 324.852 41.3083C324.707 41.4673 324.615 41.6793 324.393 41.7568C324.175 41.8301 323.919 41.8301 323.677 41.8668C323.358 41.9117 323.038 41.9565 322.719 41.9973C322.559 42.0177 322.429 42.0951 322.376 42.2419C322.366 42.2664 322.472 42.3275 322.53 42.3642C322.724 42.4865 322.912 42.6251 323.125 42.7188C323.328 42.8085 323.58 42.6618 323.798 42.7759C324.286 43.0327 324.291 43.0287 324.664 42.9797C324.983 42.9349 325.302 42.886 325.622 42.8534C325.685 42.8452 325.757 42.9064 325.825 42.939C326.028 43.0287 326.159 43.2325 326.459 43.155C326.686 43.0939 326.938 43.0817 327.175 43.0491C327.373 43.1673 327.557 43.3018 327.77 43.3956C327.968 43.4852 328.026 43.5546 327.92 43.6728C327.823 43.7829 327.687 43.8277 327.508 43.8359C327.349 43.8399 327.189 43.8766 327.029 43.897C326.947 43.9092 326.87 43.9174 326.792 43.9296C326.488 43.9745 326.488 43.9744 325.931 43.7135C325.714 43.6116 325.467 43.7543 325.259 43.6565C325.119 43.5912 324.998 43.4934 324.862 43.4241C324.804 43.3956 324.712 43.3915 324.64 43.3996C324.398 43.4282 324.156 43.4486 323.924 43.5015C323.759 43.5382 323.662 43.6524 323.682 43.7665C323.687 43.8114 323.803 43.8766 323.87 43.8807C324.025 43.8888 324.19 43.8318 324.34 43.8603C324.485 43.8888 324.635 43.9704 324.741 44.06C324.959 44.2476 325.206 44.0804 325.414 44.1294C325.631 44.1824 325.81 44.3454 326.018 44.4433C326.072 44.4677 326.173 44.4269 326.255 44.4147C326.492 44.3862 326.73 44.3617 326.967 44.3332C327.165 44.4514 327.378 44.5574 327.557 44.6919C327.881 44.9365 328.229 45.0303 328.65 44.912C328.887 44.8468 329.119 44.8713 329.308 45.0303C329.502 45.1933 329.724 45.177 329.971 45.1444C330.198 45.1118 330.431 45.0221 330.663 45.1363C331.166 45.389 331.171 45.4013 331.766 45.3034C331.945 45.2749 332.08 45.2667 332.216 45.3605C332.341 45.4461 332.477 45.5195 332.608 45.601C332.845 45.5725 333.086 45.5439 333.324 45.5113C333.628 45.4665 333.798 45.5235 333.87 45.7518C333.914 45.8904 333.933 46.0168 334.04 46.1106C334.165 46.2247 334.301 46.2206 334.485 46.188C334.659 46.1595 334.785 46.1147 334.857 45.9679C334.886 45.9068 334.944 45.8497 334.997 45.8008C335.041 45.7641 335.109 45.707 335.147 45.7152C335.22 45.7315 335.317 45.7763 335.341 45.8293C335.578 46.3225 335.578 46.3266 335.82 46.4693C336.086 46.6283 336.362 46.771 336.604 46.9503C336.821 47.1093 337.039 47.0401 337.276 47.0401C337.455 47.0401 337.571 47.1461 337.557 47.252C337.547 47.3132 337.479 47.4028 337.421 47.411C336.947 47.4925 336.468 47.5618 335.989 47.6189C335.931 47.6271 335.859 47.5537 335.791 47.517C335.655 47.4436 335.534 47.3295 335.389 47.305C335.244 47.2805 335.075 47.3417 334.915 47.3621C334.756 47.3825 334.586 47.4355 334.441 47.4029C334.296 47.3703 334.18 47.252 334.044 47.1746C333.981 47.1379 333.894 47.0849 333.841 47.0971C333.488 47.195 333.227 47.0604 332.975 46.8811C332.922 46.8444 332.83 46.8199 332.762 46.8281C332.201 46.8974 331.645 46.9789 331.084 47.0563C330.856 47.0889 330.672 46.9463 330.624 46.7057C330.6 46.5712 330.551 46.4367 330.551 46.3022C330.551 46.0576 330.285 45.923 330.092 45.9516C329.773 45.9924 329.448 46.0249 329.134 46.0861C328.878 46.135 328.66 46.0861 328.486 45.9393C328.283 45.7722 328.05 45.8048 327.818 45.8497C327.644 45.8823 327.595 46.0168 327.605 46.3552C327.615 46.6283 327.533 46.7139 327.218 46.7587C326.821 46.8158 326.42 46.8729 326.018 46.9177C325.955 46.9259 325.883 46.8566 325.82 46.8199C325.685 46.7465 325.564 46.6283 325.418 46.6038C325.273 46.5753 325.104 46.6365 324.944 46.6609C324.785 46.6813 324.615 46.7384 324.47 46.7098C324.325 46.6813 324.204 46.559 324.073 46.4816C324.011 46.4449 323.933 46.3918 323.87 46.4C323.551 46.4326 323.232 46.4816 322.912 46.5264C322.554 46.5753 322.554 46.5753 322.046 46.3226C321.814 46.2084 321.582 46.2981 321.355 46.3307C321.113 46.3633 320.885 46.3796 320.697 46.2166C320.571 46.1106 320.431 46.0454 320.281 46.0657C319.879 46.1147 319.482 46.1758 319.081 46.2247C319.013 46.2329 318.921 46.2125 318.868 46.1758C318.612 46.0046 318.36 45.8701 318.002 45.9557C317.692 46.029 317.359 46.0331 317.049 46.1024C316.88 46.1391 316.802 46.2696 316.836 46.3715C316.855 46.4245 316.957 46.4856 317.025 46.4856C317.18 46.4897 317.349 46.4285 317.494 46.453C317.794 46.5019 317.944 46.8443 318.336 46.7506C318.568 46.6935 318.81 46.6731 319.052 46.6568C319.115 46.6528 319.182 46.7302 319.25 46.771C319.444 46.8811 319.613 47.0237 319.894 46.9503C320.126 46.8933 320.373 46.877 320.61 46.8444C320.987 46.7914 320.987 46.7955 321.476 47.0441C321.708 47.1624 321.94 47.0686 322.167 47.0401C322.337 47.0197 322.496 46.9789 322.632 47.036C322.84 47.1216 322.99 47.3172 323.246 47.305C323.488 47.2928 323.725 47.2357 323.967 47.2153C324.117 47.2031 324.257 47.2683 324.378 47.3784C324.504 47.4885 324.64 47.5374 324.804 47.5129C325.041 47.4803 325.283 47.4395 325.525 47.4192C325.593 47.4151 325.67 47.4518 325.733 47.4844C325.868 47.5578 325.999 47.6434 326.13 47.7208C326.367 47.6964 326.609 47.6882 326.841 47.6393C327.02 47.6026 327.146 47.6189 327.291 47.7005C327.475 47.8105 327.625 48.0062 327.925 47.9125C328.074 47.8676 328.249 47.8798 328.399 47.8391C328.582 47.7861 328.708 47.8064 328.839 47.9287C329.086 48.1611 329.395 48.1652 329.715 48.0755C330.063 47.9776 330.324 48.0918 330.585 48.2712C330.861 48.4587 330.861 48.4546 331.074 48.9071C331.137 49.0376 331.316 49.0987 331.466 49.0743C331.717 49.0335 331.935 49.0539 332.119 49.2088C332.312 49.3759 332.545 49.3555 332.782 49.3107C333.096 49.2495 333.411 49.1966 333.667 49.433C333.793 49.5472 333.928 49.5757 334.098 49.5471C334.577 49.4737 335.06 49.4289 335.53 49.3393C335.815 49.2822 335.979 49.4126 336.173 49.5227C336.434 49.6735 336.72 49.808 336.72 50.1301C336.72 50.1831 336.787 50.2442 336.846 50.285C336.971 50.3706 337.107 50.444 337.237 50.5255C337.431 50.6478 337.62 50.7497 337.886 50.6845C338.118 50.6315 338.365 50.6152 338.602 50.5785C338.839 50.5418 339.056 50.5214 339.269 50.6763C339.516 50.8516 339.777 51.0188 340.058 51.1493C340.256 51.243 340.517 51.084 340.73 51.2104C340.861 51.2879 340.987 51.3775 341.127 51.4428C341.185 51.4713 341.277 51.4509 341.354 51.4428C341.514 51.4264 341.679 51.4142 341.833 51.3735C342.012 51.3286 342.148 51.3368 342.283 51.4306C342.409 51.5162 342.535 51.6344 342.68 51.6588C342.898 51.6955 343.14 51.5325 343.357 51.72C343.469 51.8137 343.609 51.9034 343.754 51.932C343.899 51.9605 344.068 51.8993 344.223 51.9034C344.291 51.9034 344.373 51.9687 344.412 52.0216C344.436 52.0502 344.402 52.1276 344.368 52.1684C344.325 52.2173 344.262 52.2826 344.199 52.2907C343.72 52.3641 343.241 52.4252 342.762 52.4945C342.477 52.5353 342.477 52.5353 341.901 52.2785C341.766 52.2173 341.616 52.2295 341.446 52.2581C341.219 52.2948 340.987 52.3641 340.75 52.2907C340.44 52.0135 340.058 51.989 339.651 52.095C339.482 52.1398 339.327 52.1399 339.201 52.0624C338.935 51.9075 338.655 51.7648 338.418 51.5814C338.234 51.4387 338.147 51.4265 338.07 51.6222C338.045 51.6833 338.021 51.7485 338.026 51.8056C338.055 52.0094 338.108 52.2092 338.137 52.413C338.147 52.4701 338.108 52.5353 338.084 52.5965C338.007 52.7677 337.905 52.7554 337.736 52.6127C337.566 52.4701 337.363 52.3763 337.092 52.4415C336.86 52.4986 336.608 52.4905 336.376 52.5516C336.018 52.6413 335.767 52.5108 335.51 52.3356C335.457 52.2989 335.365 52.2785 335.297 52.2866C334.577 52.3804 333.861 52.4864 333.14 52.5801C332.985 52.6005 332.845 52.5394 332.724 52.4293C332.598 52.3192 332.458 52.2622 332.303 52.2826C331.664 52.3682 331.026 52.4456 330.387 52.5516C330.126 52.5965 329.918 52.5434 329.739 52.4007C329.603 52.2948 329.477 52.2622 329.308 52.2744C329.124 52.2866 328.994 52.3274 328.902 52.4456C328.815 52.5598 328.878 52.629 329.071 52.7187C329.279 52.8166 329.473 52.943 329.671 53.0571C329.831 53.0408 329.99 53.0082 330.145 53.0122C330.213 53.0122 330.276 53.0856 330.343 53.1264C330.537 53.2446 330.716 53.3629 330.992 53.2976C331.224 53.2406 331.471 53.2283 331.708 53.1916C332.037 53.1468 332.037 53.1468 332.569 53.4036C332.704 53.4688 332.849 53.4647 333.024 53.4281C333.174 53.3995 333.328 53.4566 333.435 53.5789C333.478 53.6278 333.464 53.7094 333.372 53.9784C333.372 54.1782 333.473 54.0885 333.507 53.958C333.561 53.7705 333.459 53.7094 333.265 53.8113C333.13 53.8847 333.062 53.9907 333.096 54.0763C333.116 54.1211 333.207 54.1782 333.372 53.9784C333.798 53.7338 334.122 53.7053 334.431 53.64C334.615 53.6034 334.731 53.6196 334.876 53.7256C335.051 53.852 335.225 53.9866 335.51 53.9214C335.82 53.848 336.149 53.8398 336.463 53.7786C336.754 53.7216 336.904 53.901 337.087 54.007C337.31 54.1333 337.557 53.9907 337.76 54.064C337.973 54.1374 338.123 54.3168 338.369 54.3494C338.727 54.2393 338.955 54.4432 339.226 54.5777C339.439 54.6796 339.69 54.5899 339.917 54.545C340.174 54.4961 340.387 54.541 340.566 54.6878C340.769 54.8549 340.996 54.8182 341.229 54.7815C341.77 54.7 341.79 54.6877 342.104 54.9119C342.332 55.075 342.549 55.0016 342.777 54.9813C342.975 55.0913 343.169 55.2095 343.377 55.3074C343.43 55.3318 343.531 55.2911 343.614 55.2788C343.851 55.2462 344.093 55.2136 344.33 55.181C344.489 55.1606 344.659 55.0995 344.804 55.1239C344.949 55.1525 345.07 55.2707 345.201 55.3482C345.331 55.4256 345.467 55.5031 345.592 55.5846C345.786 55.7069 345.97 55.8088 346.241 55.7477C346.473 55.6947 346.715 55.6784 346.957 55.6417C347.261 55.5968 347.252 55.6091 347.818 55.8537C348.123 55.9882 348.437 55.8251 348.747 55.8088C348.901 55.8007 349.051 55.8455 349.158 55.9637C349.201 56.0127 349.187 56.0942 349.201 56.1635C348.403 56.2736 347.6 56.3673 346.811 56.5018C346.507 56.5548 346.347 56.4081 346.183 56.2858C345.912 56.0901 345.554 56.3754 345.297 56.1227C345.142 55.9718 344.92 55.8863 344.654 55.9597C344.499 56.0004 344.334 55.9963 344.175 56.033C343.768 56.1227 343.396 56.1268 343.072 55.8455C342.961 55.7477 342.801 55.6947 342.685 55.6009C342.549 55.499 342.419 55.4419 342.259 55.4623C341.538 55.5601 340.822 55.6579 340.106 55.7639C340.043 55.7721 339.98 55.8333 339.927 55.8781C339.792 55.9922 339.835 56.0819 340.053 56.1553C340.126 56.1798 340.184 56.2327 340.251 56.2735C340.382 56.351 340.503 56.4733 340.648 56.5018C340.793 56.5304 340.963 56.4733 341.122 56.4529C341.282 56.4325 341.451 56.3714 341.596 56.3958C341.741 56.4244 341.862 56.5426 341.998 56.616C342.061 56.6527 342.138 56.7138 342.201 56.7097C342.52 56.6853 342.835 56.6404 343.154 56.6037C343.352 56.7138 343.522 56.8728 343.759 56.9095C343.909 56.9339 344.068 56.8891 344.223 56.8972C344.291 56.9013 344.378 56.9625 344.412 57.0155C344.431 57.0481 344.368 57.1296 344.32 57.1704C344.136 57.3253 343.885 57.2967 343.657 57.3457C343.411 57.3987 343.188 57.3824 342.999 57.2234C342.873 57.1174 342.733 57.0603 342.578 57.0807C342.177 57.1337 341.78 57.1949 341.379 57.2397C341.311 57.2479 341.229 57.2112 341.166 57.1826C340.658 56.934 340.658 56.9258 340.3 56.9788C339.772 57.0563 339.772 57.0562 339.419 56.8402C339.352 56.7994 339.279 56.722 339.221 56.7261C338.66 56.7913 338.103 56.8565 337.547 56.9502C337.363 56.9788 337.237 56.9788 337.102 56.8728C336.986 56.7831 336.85 56.6812 336.705 56.6567C336.555 56.6323 336.391 56.6934 336.231 56.7138C336.071 56.7342 335.902 56.7872 335.762 56.7546C335.617 56.722 335.491 56.6078 335.365 56.5263C335.234 56.4407 335.094 56.4447 334.915 56.4773C334.364 56.5711 334.359 56.5589 333.812 56.3062C333.749 56.2776 333.667 56.245 333.599 56.2532C333.198 56.3021 332.801 56.3632 332.4 56.4122C332.245 56.4325 332.095 56.3795 331.988 56.2613C331.945 56.2124 331.959 56.1308 331.93 55.9718C331.896 55.9352 331.935 56.0004 331.945 56.0616C332.017 56.0534 332.104 56.0615 332.158 56.0289C332.293 55.9515 332.361 55.8495 332.327 55.7639C332.308 55.7191 332.216 55.662 332.158 55.662C332.051 55.662 331.959 55.7517 331.93 55.9718C331.626 56.1064 331.301 56.1349 330.987 56.2002C330.803 56.2409 330.687 56.2206 330.542 56.1146C330.368 55.9841 330.189 55.8577 329.903 55.9229C329.594 55.9963 329.265 56.0086 328.945 56.0657C328.578 56.1309 328.418 55.7639 328.108 55.7721C327.789 55.7803 327.47 55.8496 327.15 55.8985C326.87 55.9393 326.87 55.9392 326.289 55.6743C326.076 55.5764 325.825 55.7191 325.617 55.6172C325.477 55.552 325.356 55.4541 325.22 55.3848C325.162 55.3563 325.07 55.3563 324.998 55.3644C324.596 55.4134 324.19 55.446 323.803 55.5357C323.362 55.6417 323.029 55.5275 322.714 55.287C322.317 55.3318 321.916 55.3563 321.524 55.4338C321.239 55.4908 321.074 55.3563 320.881 55.2463C320.813 55.2096 320.755 55.1484 320.682 55.1321C320.61 55.1158 320.523 55.1484 320.445 55.1606C320.126 55.2055 319.797 55.2259 319.487 55.2992C319.105 55.393 318.96 55.0587 318.665 55.0179C318.466 55.2177 318.36 55.4908 317.968 55.5112C317.649 55.5275 317.33 55.5927 317.01 55.6376C316.851 55.658 316.691 55.6824 316.531 55.7028C316.275 55.7395 316.154 55.8985 316.207 56.1431C316.236 56.2776 316.26 56.4121 316.285 56.5467C316.333 56.7872 316.212 56.991 316.009 57.0196C315.448 57.097 314.891 57.1785 314.33 57.2478C314.18 57.2682 314.035 57.1989 313.914 57.0888C313.788 56.9788 313.648 56.9299 313.493 56.9502C312.932 57.0277 312.376 57.1093 311.814 57.1786C311.752 57.1867 311.669 57.1459 311.606 57.1133C311.471 57.0399 311.34 56.9543 311.21 56.8769C310.89 56.9136 310.576 56.938 310.262 56.9869C309.754 57.0603 309.754 57.0644 309.381 56.8402C309.313 56.7994 309.246 56.722 309.183 56.7261C308.941 56.7424 308.704 56.7831 308.462 56.8198C307.751 56.9258 307.751 56.9258 307.543 56.8035C307.354 56.6893 307.185 56.5508 306.899 56.616C306.589 56.6894 306.261 56.7138 305.941 56.7546C305.704 56.7831 305.467 56.8157 305.23 56.8239C305.167 56.828 305.099 56.7505 305.032 56.7097C304.838 56.5834 304.65 56.4814 304.383 56.5507C304.229 56.5915 304.064 56.5997 303.905 56.6201C303.488 56.6771 303.488 56.6771 302.806 56.4325C302.739 56.408 302.656 56.3795 302.589 56.3918C302.027 56.4651 301.471 56.5467 300.91 56.616C300.842 56.6241 300.76 56.5996 300.692 56.5793C299.928 56.3428 299.928 56.3428 299.115 56.457C298.805 56.4978 298.796 56.5141 298.472 56.298C298.326 56.2042 298.206 56.1594 298.036 56.1879C297.398 56.2858 296.754 56.351 296.12 56.4651C295.835 56.5141 295.671 56.3917 295.477 56.2817C295.409 56.245 295.337 56.1635 295.279 56.1676C294.64 56.245 294.001 56.3388 293.363 56.4162C293.305 56.4244 293.232 56.3428 293.164 56.3062C293.034 56.2328 292.908 56.1227 292.763 56.0982C292.613 56.0738 292.448 56.1349 292.284 56.1553C291.882 56.2083 291.882 56.2043 291.418 55.9637C291.355 55.9311 291.273 55.8863 291.21 55.8944C290.571 55.9759 289.928 56.0453 289.294 56.1635C288.931 56.2287 288.685 56.1105 288.428 55.9393C288.375 55.9026 288.283 55.8863 288.215 55.8944C287.495 55.9882 286.779 56.0942 286.058 56.1879C285.908 56.2083 285.763 56.139 285.642 56.033C285.448 55.8659 285.221 55.8862 284.979 55.9229C284.423 56.0085 284.418 56.0045 284.089 55.8088C284.021 55.7681 283.963 55.715 283.89 55.6947C283.823 55.6743 283.736 55.6865 283.663 55.6947C283.344 55.7354 283.024 55.7803 282.705 55.8251C282.386 55.8699 282.062 55.8944 281.747 55.9637C281.36 56.0493 281.176 55.7843 280.905 55.662C280.509 55.715 280.102 55.7476 279.71 55.8333C279.41 55.8985 279.27 55.7191 279.072 55.6253C279.004 55.5927 278.931 55.5234 278.869 55.5316C278.148 55.6213 277.427 55.7191 276.711 55.8292C276.537 55.8536 276.421 55.821 276.276 55.7232C275.951 55.503 275.937 55.5112 275.395 55.5928C275.158 55.6294 274.931 55.6621 274.727 55.4949C274.548 55.3441 274.331 55.3074 274.074 55.3563C273.76 55.4174 273.436 55.4501 273.116 55.4908C272.797 55.5357 272.478 55.5968 272.159 55.6172C271.902 55.6376 271.747 55.446 271.544 55.3482C271.481 55.3196 271.394 55.3155 271.322 55.3237C271.002 55.3604 270.673 55.3889 270.364 55.4582C269.986 55.5438 269.778 55.3196 269.512 55.1892C269.454 55.1606 269.357 55.1769 269.285 55.1892C268.724 55.2626 268.167 55.3441 267.606 55.4215C267.408 55.3114 267.204 55.2055 267.006 55.0954C266.687 55.1362 266.368 55.181 266.048 55.2218C265.806 55.2544 265.56 55.2666 265.332 55.3278C265.037 55.4093 264.892 55.2177 264.694 55.1239C264.626 55.0913 264.553 55.022 264.49 55.0302C264.089 55.075 263.687 55.124 263.291 55.1933C262.913 55.2626 262.763 54.8956 262.454 54.8997C262.134 54.9038 261.806 54.9568 261.496 55.0302C261.138 55.1158 260.886 54.9853 260.63 54.81C260.577 54.7733 260.485 54.753 260.417 54.7611C260.016 54.81 259.619 54.8712 259.217 54.9201C259.15 54.9283 259.067 54.9079 259 54.8834C258.235 54.6429 258.235 54.6388 257.901 54.6878C257.664 54.7204 257.422 54.7611 257.181 54.7815C257.113 54.7897 257.03 54.753 256.968 54.7204C256.464 54.4717 256.464 54.4676 256.102 54.5165C255.782 54.5614 255.463 54.6062 255.144 54.651C254.945 54.541 254.742 54.435 254.544 54.3249C254.147 54.3779 253.741 54.4187 253.349 54.492C253.165 54.5247 253.044 54.5124 252.904 54.4105C252.73 54.2882 252.555 54.1456 252.265 54.2149C251.956 54.2882 251.627 54.2964 251.312 54.3575C250.935 54.4309 250.78 54.06 250.475 54.064C250.156 54.0681 249.827 54.1211 249.517 54.1945C249.159 54.2801 248.908 54.1496 248.651 53.9744C248.598 53.9377 248.506 53.9173 248.439 53.9254C247.558 54.0437 246.682 54.1618 245.802 54.2882C245.26 54.3657 245.26 54.3698 244.23 54.1455C244.157 54.1292 244.08 54.113 244.007 54.1211C243.688 54.1578 243.359 54.1863 243.049 54.2556C242.672 54.3412 242.464 54.1211 242.198 53.9865C242.14 53.958 242.048 53.9743 241.97 53.9825C241.728 54.011 241.491 54.0477 241.249 54.0803C240.93 54.1252 240.611 54.17 240.292 54.2149C240.093 54.1089 239.89 53.9988 239.692 53.8928C239.295 53.9458 238.889 53.9743 238.497 54.0599C238.197 54.1252 238.056 53.954 237.858 53.8561C237.79 53.8235 237.718 53.7542 237.655 53.7583C236.934 53.848 236.213 53.9417 235.497 54.0559C235.202 54.1048 235.067 53.9213 234.868 53.8276C234.801 53.799 234.723 53.746 234.66 53.7542C234.181 53.8113 233.702 53.8806 233.223 53.9499C232.953 53.9906 232.953 53.9906 232.362 53.7379C232.295 53.7093 232.217 53.6808 232.149 53.689C230.63 53.8928 229.116 54.1089 227.597 54.3127C227.442 54.3331 227.302 54.2719 227.181 54.1619C227.055 54.0518 226.915 53.9947 226.76 54.0151C226.121 54.1007 225.478 54.1782 224.844 54.2842C224.583 54.329 224.375 54.276 224.196 54.1333C224.061 54.0273 223.935 53.9866 223.765 54.011C223.446 54.0599 223.127 54.1007 222.808 54.1455C222.488 54.1904 222.169 54.2353 221.85 54.2801C221.53 54.3249 221.206 54.3494 220.892 54.4187C220.505 54.5043 220.316 54.2516 220.05 54.1252C219.571 54.1863 219.092 54.2475 218.618 54.3127C217.979 54.3983 217.341 54.4921 216.702 54.5736C216.644 54.5818 216.572 54.5084 216.504 54.4717C216.305 54.3698 216.16 54.2271 215.865 54.2719C214.433 54.488 212.992 54.6714 211.555 54.8834C211.255 54.9283 211.124 54.753 210.921 54.6592C210.853 54.6307 210.776 54.5736 210.713 54.5818C209.915 54.6837 209.116 54.7978 208.318 54.9079C207.994 54.9527 207.994 54.9527 207.452 54.7C207.389 54.6714 207.307 54.6347 207.239 54.6429C206.199 54.7815 205.164 54.9283 204.124 55.0709C203.969 55.0913 203.829 55.0343 203.703 54.9242C203.582 54.8141 203.437 54.753 203.287 54.7733C202.329 54.9038 201.366 55.0302 200.413 55.1729C200.157 55.2136 199.944 55.1769 199.76 55.0302C199.629 54.9242 199.499 54.8793 199.334 54.9038C197.897 55.1035 196.46 55.2952 195.024 55.5072C194.748 55.5479 194.554 55.4705 194.38 55.3359C194.24 55.2299 194.119 55.2095 193.945 55.2258C193.761 55.2462 193.65 55.2911 193.548 55.4134C193.418 55.5723 193.335 55.7721 193.026 55.7843C192.706 55.7966 192.382 55.8455 192.068 55.9148C191.768 55.9841 191.628 55.8007 191.439 55.6906C191.299 55.6131 191.168 55.6009 190.989 55.6376C190.824 55.6702 190.723 55.7395 190.626 55.8699C190.413 56.1471 190.394 56.1471 190.133 55.9718C189.992 55.8781 189.867 55.8047 189.712 55.821C189.073 55.9025 188.435 55.9922 187.796 56.086C187.428 56.139 187.423 56.1472 187.148 55.9433C187.012 55.8414 186.882 55.7925 186.722 55.8169C184.966 56.0615 183.21 56.298 181.454 56.5548C181.183 56.5956 180.999 56.51 180.805 56.3877C180.742 56.3469 180.679 56.2898 180.607 56.2735C180.534 56.2572 180.452 56.2735 180.375 56.2817C179.098 56.457 177.815 56.6241 176.543 56.8198C176.253 56.8647 176.098 56.7342 175.9 56.6282C175.832 56.5915 175.774 56.5345 175.701 56.5181C175.629 56.5059 175.542 56.5344 175.464 56.5467C174.187 56.722 172.905 56.8891 171.633 57.0848C171.328 57.1296 171.197 56.9584 170.999 56.8687C170.931 56.8361 170.859 56.7749 170.796 56.7831C170.394 56.8279 169.997 56.8891 169.596 56.9421C168.638 57.0766 167.68 57.203 166.722 57.3416C166.355 57.3946 166.195 57.0318 165.885 57.0481C165.484 57.0685 165.087 57.15 164.685 57.2071C164.366 57.2519 164.047 57.2927 163.728 57.3416C163.413 57.3865 163.413 57.3864 162.629 57.15C162.562 57.1296 162.479 57.1011 162.412 57.1092C161.294 57.2601 160.172 57.4109 159.059 57.574C158.803 57.6107 158.59 57.5903 158.406 57.4395C158.275 57.3335 158.14 57.2804 157.98 57.3049C156.302 57.5373 154.628 57.7697 152.949 57.998C152.886 58.0061 152.804 57.9653 152.741 57.9327C152.605 57.8593 152.475 57.7737 152.344 57.6963C152.247 57.7901 152.122 57.8756 152.059 57.9816C151.972 58.1243 151.856 58.1651 151.672 58.1895C151.488 58.214 151.372 58.2059 151.227 58.0999C151.052 57.9694 150.873 57.8675 150.588 57.9082C148.832 58.1651 147.076 58.3974 145.32 58.6502C145.029 58.691 144.894 58.5116 144.691 58.4178C144.623 58.3893 144.545 58.3445 144.483 58.3526C143.762 58.4464 143.046 58.5483 142.325 58.6461C140.327 58.9233 138.329 59.1883 136.336 59.4818C135.973 59.5348 135.726 59.4329 135.47 59.2576C135.416 59.2209 135.325 59.2005 135.257 59.2087C132.461 59.5919 129.664 59.9792 126.873 60.3664C126.723 60.3868 126.578 60.3216 126.457 60.2156C126.331 60.1055 126.191 60.0525 126.036 60.0729C124.759 60.2482 123.482 60.4235 122.204 60.6029C121.885 60.6477 121.88 60.6518 121.551 60.4561C121.483 60.4153 121.411 60.3379 121.358 60.3461C121.246 60.3665 121.14 60.4683 121.063 60.6069C120.985 60.7537 120.864 60.7945 120.685 60.823C120.501 60.8515 120.38 60.8393 120.24 60.7415C120.061 60.6192 119.897 60.501 119.606 60.5417C115.934 61.0636 112.262 61.5649 108.591 62.0827C108.295 62.1234 108.16 61.9522 107.957 61.8585C107.889 61.8299 107.821 61.7892 107.749 61.781C107.671 61.7728 107.589 61.7973 107.512 61.8096C101.522 62.6371 95.5332 63.4687 89.5439 64.2963C89.1859 64.3452 89.1908 64.3452 88.7989 64.7203C88.7505 64.7651 88.6876 64.8262 88.6198 64.8344C86.7863 65.0953 84.948 65.348 83.1096 65.6008C82.3113 65.7108 81.5131 65.825 80.7149 65.931C80.4294 65.9677 80.4294 65.9677 79.7473 66.408C79.6892 66.4447 79.6214 66.4936 79.5537 66.5017C76.3607 66.9461 73.1677 67.3904 69.9699 67.8266C69.7183 67.8592 69.5152 67.9326 69.399 68.1283C69.3168 68.2669 69.2104 68.3484 69.0507 68.3729C66.8156 68.6827 64.5806 68.9966 62.3407 69.2983C62.0746 69.335 61.9149 69.4491 61.7843 69.6203C61.7407 69.6774 61.702 69.7426 61.6391 69.7834C61.581 69.8201 61.494 69.8323 61.4214 69.8445C59.5056 70.1095 57.5899 70.3827 55.6693 70.6354C55.3838 70.6721 55.2677 70.8229 55.1274 70.9819C55.079 71.0349 55.0451 71.1083 54.9822 71.145C54.9193 71.1776 54.8274 71.1776 54.75 71.1857C53.1535 71.4059 51.5571 71.6301 49.9606 71.8502C49.6509 71.8298 49.5832 72.0663 49.4332 72.209C49.38 72.2579 49.3414 72.3231 49.2785 72.3557C49.2107 72.3883 49.1235 72.3842 49.0413 72.3924C47.7641 72.5677 46.4869 72.7552 45.2049 72.9183C44.9098 72.955 44.8517 73.1629 44.6921 73.3055C44.6389 73.3504 44.5857 73.4197 44.5228 73.4319C43.7246 73.5502 42.9263 73.6602 42.1281 73.7662C41.862 73.8029 41.862 73.7989 41.3927 74.2024C41.3395 74.2473 41.2766 74.2962 41.2088 74.3084C40.0139 74.4796 38.8141 74.6427 37.6143 74.8098C37.4595 74.8302 37.3531 74.9281 37.2757 75.0667C37.1983 75.2053 37.0871 75.295 36.9322 75.3153C35.9743 75.4499 35.0164 75.5885 34.0585 75.7108C33.7924 75.7434 33.6183 75.8453 33.5022 76.0287C33.4151 76.1673 33.3086 76.2366 33.1393 76.2611C32.1814 76.3915 31.2236 76.5342 30.2608 76.6484C29.9802 76.681 29.835 76.8196 29.7189 76.9908C29.627 77.1294 29.5206 77.1783 29.3416 77.2028C27.5854 77.4392 25.8245 77.6757 24.0732 77.9366C23.7781 77.9814 23.6281 77.8387 23.4346 77.7368C23.1588 77.5941 22.9025 77.4392 22.9025 77.1212C22.9025 77.0723 22.8202 77.0153 22.7621 76.9745C22.3316 76.6687 22.3316 76.6688 22.2638 76.3426C22.2251 76.1429 22.1816 75.9391 22.1477 75.7352C22.0848 75.401 21.93 75.3153 21.4849 75.3765C21.3252 75.3969 21.1656 75.4254 21.0059 75.4417C20.7689 75.4702 20.5899 75.3357 20.5464 75.0911C20.5222 74.9566 20.4932 74.8221 20.469 74.6875C20.7109 74.6549 20.706 74.6509 21.1317 74.1576C21.3107 73.9497 21.3108 73.9497 20.9673 73.7418C20.8367 73.6643 20.7109 73.5787 20.5706 73.5053C20.5077 73.4727 20.4255 73.4523 20.3577 73.4605C19.9562 73.5094 19.5595 73.5665 19.1628 73.6235C18.5242 73.7132 18.5241 73.7132 17.8759 73.2974C17.8226 73.2648 17.7404 73.2037 17.7501 73.171C17.8033 73.0202 17.9339 72.955 18.0984 72.9386C18.3403 72.9142 18.5773 72.8734 18.8144 72.8408C18.974 72.8204 19.1337 72.796 19.2933 72.7756C19.4433 72.6207 19.5982 72.4699 19.7385 72.3109C19.961 72.0663 19.9609 72.0581 19.6562 71.8869C19.4626 71.7728 19.2546 71.6708 19.0563 71.5648C18.8192 71.5975 18.5773 71.6341 18.3403 71.6627C18.0403 71.6994 17.9194 71.6219 17.842 71.3569C17.7742 71.1246 17.8565 70.9248 18.0887 70.8759C18.3258 70.827 18.5484 70.7944 18.6693 70.5865C18.7854 70.3867 18.9886 70.3092 19.2402 70.2929C19.3998 70.2807 19.5595 70.2522 19.7191 70.2277C19.9271 70.1951 20.0384 69.9872 19.9949 69.7549C19.9707 69.604 19.9223 69.4776 19.7336 69.445C18.8967 69.3023 18.887 69.3064 18.4709 69.0292C18.4322 69.0047 18.4032 68.9314 18.4178 68.8947C18.4419 68.8335 18.4952 68.7439 18.5532 68.7316C19.1096 68.6419 19.6659 68.5604 20.2223 68.4993C20.4061 68.4789 20.5416 68.4503 20.6045 68.2995C20.6916 68.0916 20.6529 67.9 20.4835 67.7573C20.4303 67.7125 20.3432 67.6554 20.2851 67.6595C19.6465 67.7328 19.0128 67.8266 18.3742 67.9C18.3161 67.9081 18.2097 67.8389 18.1855 67.7859C18.1372 67.688 18.2097 67.5576 18.379 67.5127C18.6016 67.4516 18.8289 67.4475 18.9789 67.2437C19.1869 66.9542 19.4433 66.6893 19.6755 66.4121C19.7142 66.3631 19.7772 66.2693 19.7627 66.2612C19.6417 66.1715 19.5014 66.1022 19.3756 66.0166C19.1628 65.8739 19.1627 65.6742 19.2111 65.4826C19.2498 65.3277 19.395 65.2665 19.574 65.2665C19.6514 65.2665 19.7481 65.2665 19.811 65.2298C19.9755 65.1402 20.0287 65.026 19.9465 64.9404C19.8981 64.8914 19.8111 64.8222 19.753 64.8303C18.7177 64.9649 17.6775 65.0953 16.647 65.2624C16.3422 65.3113 16.202 65.1564 16.0182 65.0464C15.8779 64.9607 15.7472 64.9281 15.573 64.9893C15.4085 65.0463 15.249 65.0138 15.1474 64.8793C15.0651 64.7692 15.2102 64.6754 15.6021 64.5694C15.6747 64.549 15.7569 64.5368 15.8101 64.496C16.3713 64.0558 16.3713 64.0517 16.7583 63.9946C17.1356 63.9416 17.1357 63.9376 17.3341 63.7011C17.426 63.591 17.5275 63.4809 17.6146 63.3668C17.6485 63.322 17.7066 63.2404 17.6872 63.216C17.5808 63.0896 17.4356 63.0611 17.2663 63.0896C16.8889 63.1589 16.4439 63.1018 16.2456 63.4891C16.1682 63.6359 16.0472 63.6767 15.873 63.7011C14.1217 63.9376 12.3704 64.1903 10.6142 64.4186C10.3288 64.4553 10.1983 64.6061 10.087 64.7733C9.99022 64.9119 9.88377 64.9526 9.69993 64.9771C9.51609 65.0015 9.37088 65.0138 9.26445 64.8793C9.20156 64.7977 9.25479 64.6836 9.39992 64.5694C9.60795 64.4064 9.56923 64.2025 9.5015 64.0109C9.45312 63.8846 9.30315 63.7949 9.1435 63.803C8.90645 63.8193 8.67913 63.8642 8.48078 63.7011C8.36467 63.6073 8.21951 63.5421 8.08888 63.4606C7.83732 63.2934 7.58574 63.1222 7.23257 63.2323C6.99068 63.1915 6.82136 63.0448 6.62784 62.9306C6.3037 62.7431 6.27468 62.7146 6.50689 62.5148C6.76814 62.2906 6.56491 61.9971 6.71005 61.7769C6.86486 61.5405 7.0778 61.3326 7.26647 61.1125C7.31485 61.0554 7.35841 61.0024 7.40679 60.9453C7.29552 60.8638 7.19394 60.7619 7.06332 60.7048C6.89399 60.6314 6.80691 60.5417 6.81658 60.289C6.78272 60.2523 6.79713 60.3461 6.83584 60.3705C6.87938 60.395 6.98589 60.3746 7.03911 60.3461C7.17457 60.2686 7.24223 60.1667 7.20836 60.0811C7.18901 60.0362 7.09716 59.9792 7.03911 59.9792C6.93267 59.9792 6.84077 60.0689 6.81174 60.289C6.2699 60.4561 5.70862 60.5377 5.14743 60.6029C5.08937 60.6111 5.01685 60.5295 4.94912 60.4888C4.72658 60.3501 4.72655 60.3542 4.07344 60.3134C4.00571 60.3094 3.91384 60.2523 3.87997 60.1952C3.73967 59.9466 3.74455 59.6734 3.67682 59.4084C3.8026 59.2372 3.92829 59.0701 4.05891 58.9029C4.32015 58.5646 4.65888 58.267 4.86207 57.896C4.81853 57.6963 4.76047 57.4965 4.97333 57.3335C5.57806 57.1296 5.57326 57.1296 5.73775 56.934C6.20702 56.3796 6.67143 55.821 7.16005 55.2748C7.29067 55.1321 7.29069 55.0547 7.05848 54.9935C6.98591 54.9772 6.9084 54.9731 6.83099 54.9813C6.5891 55.0098 6.34721 55.0832 6.11016 55.0669C5.8731 55.0546 5.69894 54.8753 5.50542 54.7652C5.30707 54.651 5.10873 54.5328 4.91038 54.4146C4.683 54.4268 4.45566 54.541 4.22828 54.3575C4.05412 54.2148 3.83643 54.1129 3.63808 53.9947C3.78805 53.6849 4.06869 53.4484 4.28639 53.1753C4.48475 52.9266 4.48948 52.9307 5.02164 52.7391C5.27321 52.6494 5.36029 52.1888 5.14743 52.0542C4.89102 51.8912 4.62016 51.7403 4.35891 51.5854C4.13154 51.5977 3.89937 51.7078 3.68166 51.5243C3.51234 51.3857 3.31878 51.2919 3.03819 51.3449C2.56408 51.4346 2.08031 51.4795 1.60136 51.5528C1.43687 51.5773 1.25782 51.561 1.18525 51.4224C1.13687 51.3246 1.27718 51.19 1.43683 51.1615C1.67872 51.1207 1.8964 51.0718 2.01735 50.868C2.13346 50.6642 2.3463 50.603 2.59787 50.5744C2.6656 50.5663 2.74306 50.5174 2.77693 50.4684C2.95109 50.232 3.14462 50.0282 3.51713 50.0363C3.67194 49.9548 3.75413 49.8529 3.70576 49.755C3.67673 49.702 3.57519 49.6328 3.51713 49.6409C3.11559 49.6817 2.71406 49.7225 2.3222 49.7958C2.13836 49.8285 1.99798 49.8366 1.88187 49.7143C1.79963 49.6327 1.84317 49.5227 1.99798 49.4045C2.13344 49.3025 2.17218 49.1843 2.16251 49.0457C2.13832 48.7237 1.99315 48.6299 1.52872 48.6503C1.19491 48.6666 1.11266 48.6136 1.04009 48.3364C1.02074 48.2712 0.972447 48.1815 1.00631 48.1366C1.21434 47.8594 1.34981 47.517 1.74168 47.3866C1.89649 47.3376 2.06091 47.3376 2.15767 47.2316C2.25442 47.1257 2.34155 47.0033 2.44314 46.9014C2.56893 46.7791 2.65592 46.665 2.59787 46.5876C2.50111 46.449 2.34635 46.4367 2.16735 46.4856C2.01254 46.5264 1.84806 46.5305 1.68841 46.5549C1.40297 46.5998 1.17081 46.4938 1.13694 46.3144C1.04502 45.8415 0.948239 45.3727 0.865995 44.8998C0.85632 44.8428 0.880443 44.7694 0.919146 44.7204C1.05461 44.5492 1.1998 44.3862 1.3401 44.219C1.50458 44.0274 1.76587 44.0641 1.98841 44.0274C2.30287 43.9744 2.30276 43.9785 2.72366 43.5871C2.88814 43.4322 3.17359 43.4934 3.34292 43.3548C3.39613 43.31 3.47838 43.2366 3.46386 43.1958C3.44451 43.1428 3.34781 43.102 3.27524 43.0776C3.20751 43.0531 3.12528 43.0409 3.05272 43.0531C2.17223 43.1714 1.2966 43.2977 0.416108 43.4119C0.266134 43.4323 0.101642 43.3426 0.0484258 43.2162C-0.00479061 43.098 0.00967572 42.9553 0 42.8207C0.140298 42.6536 0.299886 42.4987 0.420832 42.3193C0.512751 42.1807 0.619203 42.1196 0.803042 42.1114C1.04493 42.0992 1.28201 42.0503 1.55293 42.0136C2.05607 41.4184 2.5495 40.7947 3.09134 40.1995C3.30904 39.959 3.25591 39.7144 3.29945 39.4575C3.34299 39.2211 3.66711 39.2578 3.88481 39.1885C4.05898 39.1315 4.11696 39.001 4.04923 38.9113C4.01052 38.8583 3.92349 38.7971 3.85576 38.7971C3.69611 38.7971 3.53646 38.8338 3.37682 38.8542C3.21717 38.8746 3.03334 38.8624 2.90271 38.9317C2.77693 38.9969 2.69464 39.1355 2.6124 39.2537C2.52048 39.3842 2.39962 39.429 2.21578 39.4372C1.97872 39.4453 1.74168 39.482 1.50463 39.5105C1.24338 39.3516 0.972405 39.1967 0.720836 39.0295C0.672457 38.9969 0.66273 38.9032 0.667568 38.842C0.677243 38.683 0.604694 38.5852 0.445045 38.5077C0.309585 38.4425 0.198305 38.3487 0.0725206 38.2672C0.169278 38.1571 0.275748 38.0511 0.353154 37.9329C0.522479 37.6842 0.735368 37.5049 1.10305 37.5131C1.24818 37.3541 1.36426 37.1584 1.55293 37.0483C1.73193 36.9423 2.03673 37.0483 2.17219 36.8078C2.23992 36.6895 2.34157 36.555 2.4722 36.5061C2.68023 36.4286 2.95114 36.4694 3.07209 36.2412C3.14465 36.1107 3.25104 35.9925 3.39134 35.9598C3.55099 35.9232 3.71544 35.915 3.83155 35.8376C3.89444 35.7968 3.96218 35.7316 3.96218 35.6745C3.96218 35.6378 3.8655 35.5807 3.79777 35.5563C3.73487 35.5277 3.65254 35.5074 3.57997 35.5155C3.33807 35.54 3.10102 35.5848 2.85913 35.6093C2.7914 35.6174 2.71402 35.5889 2.64145 35.5644C2.42859 35.4992 2.44307 35.4177 2.6124 35.2709C2.78172 35.1282 2.90273 34.9448 3.04303 34.7776C3.19784 34.7491 3.39133 34.7613 3.49776 34.6839C3.67676 34.5575 3.80251 34.374 3.94765 34.215C4.1073 34.1906 4.27178 34.1825 4.42175 34.1376C4.48464 34.1213 4.51369 34.0316 4.56691 33.9786C4.66367 33.8767 4.74598 33.73 4.8766 33.681C5.08946 33.6077 5.3507 33.6362 5.47649 33.412C5.54906 33.2815 5.66028 33.1429 5.79574 33.1348C6.1731 33.1185 6.33275 32.8942 6.52627 32.6822C6.6714 32.5233 6.98103 32.6048 7.14068 32.4458C7.24712 32.3439 7.32457 32.2175 7.431 32.1197C7.47454 32.0789 7.56643 32.0585 7.639 32.0463C8.0357 31.9852 8.43723 31.9403 8.83393 31.8751C8.89682 31.8629 8.95493 31.8017 9.0033 31.7528C9.1049 31.6468 9.16772 31.5 9.29351 31.4307C9.41929 31.3614 9.59827 31.3615 9.75308 31.3411C10.2514 31.2799 10.2901 31.2962 10.5175 30.9497C10.7013 30.6684 11.1513 30.8682 11.3013 30.5583C11.3884 30.379 11.5479 30.2322 11.8334 30.2118C12.2349 30.1833 12.6316 30.1059 13.0332 30.0529C13.3912 30.0039 13.3863 30.0039 13.7734 29.6248C13.9475 29.4536 14.204 29.4781 14.4314 29.4454C14.6733 29.4128 14.8958 29.3639 15.0119 29.1601C15.128 28.9604 15.3408 28.8951 15.5876 28.8666C15.8149 28.838 16.0714 28.8584 16.2504 28.6954C16.6858 28.304 16.681 28.2999 16.9858 28.2591C17.4647 28.1939 17.9437 28.1287 18.4226 28.0594C18.7419 28.0145 19.0757 28.0064 19.3756 27.9167C19.5933 27.8515 19.6901 27.6232 19.8304 27.4642C20.2271 27.4031 20.6238 27.3419 21.0205 27.2848C21.5768 27.2033 22.138 27.1299 22.6992 27.0525C22.9411 26.8976 22.975 26.5551 23.3814 26.5388C23.6233 26.5307 23.8603 26.4777 24.1022 26.4451C24.5038 26.388 24.9005 26.3146 25.302 26.2861C25.6068 26.2657 25.6599 26.0455 25.8196 25.9069C25.8728 25.858 25.9212 25.7887 25.9841 25.7765C26.613 25.6624 27.2613 25.6379 27.8757 25.4708C27.9386 25.4545 27.9966 25.3688 28.0111 25.3077C28.0208 25.2751 27.9386 25.214 27.8854 25.1854C27.8225 25.1528 27.7403 25.1202 27.6725 25.1283C25.6745 25.4015 23.6765 25.6787 21.6785 25.9518C21.3979 25.9926 21.3979 25.9885 20.7157 26.4369C20.6577 26.4736 20.5899 26.5144 20.5173 26.5266C20.198 26.5755 19.8739 26.6041 19.5594 26.6652C19.303 26.7141 19.0902 26.6652 18.9064 26.5184C18.7758 26.4124 18.6402 26.3798 18.4757 26.388C18.2919 26.4002 18.171 26.4451 18.0646 26.5552C17.9243 26.706 17.8517 26.9016 17.5566 26.9424C16.1972 27.1177 14.8376 27.3134 13.483 27.5009C13.2944 27.4438 13.2025 27.3582 13.2508 27.2563C13.2799 27.1952 13.3379 27.1136 13.396 27.1055C13.9524 27.0199 14.5135 26.9465 15.0699 26.865C15.1473 26.8527 15.2537 26.8609 15.2972 26.8201C15.5101 26.6366 15.5876 26.3391 15.9891 26.3187C16.2214 26.3064 16.4584 26.2453 16.6809 26.1882C16.7438 26.1719 16.8019 26.0863 16.8164 26.0252C16.8212 25.9926 16.7438 25.9314 16.6858 25.9029C16.4729 25.7846 16.2262 25.9274 16.0134 25.8458C15.9408 25.8173 15.8391 25.7765 15.8246 25.7276C15.8149 25.6827 15.8972 25.6094 15.9552 25.5645C16.0085 25.5238 16.081 25.4871 16.1536 25.4748C16.7922 25.3811 17.4308 25.2832 18.0694 25.2099C18.3307 25.1813 18.5145 25.0794 18.6306 24.8919C18.7177 24.7533 18.8241 24.6799 18.9886 24.6595C20.1061 24.5087 21.2237 24.3416 22.346 24.2029C22.6266 24.1703 22.7718 24.0358 22.8879 23.8605C22.9799 23.7219 23.0863 23.673 23.2653 23.6485C24.8666 23.4366 26.4582 23.2001 28.0596 22.9963C28.3547 22.9596 28.4418 22.7843 28.5918 22.6335C28.645 22.5805 28.6788 22.5152 28.7465 22.4826C28.8142 22.45 28.9013 22.4541 28.9836 22.4459C30.2608 22.2706 31.538 22.0831 32.8201 21.9201C33.12 21.8834 33.178 21.6795 33.3328 21.5368C33.386 21.492 33.4344 21.4186 33.4973 21.4064C34.4552 21.2678 35.4131 21.1374 36.371 21.0028C37.0096 20.9131 37.6482 20.8234 38.2868 20.7378C38.6012 20.6971 38.6012 20.693 39.027 20.3057C39.0753 20.2609 39.1431 20.2079 39.206 20.1956C41.0444 19.9347 42.8779 19.6861 44.7163 19.4293C44.8711 19.4089 44.9823 19.3151 45.0598 19.1765C45.1372 19.0379 45.2485 18.9441 45.3985 18.9237C46.8353 18.7199 48.2721 18.5202 49.7138 18.3286C49.9751 18.2959 50.1589 18.1981 50.275 18.0147C50.3621 17.876 50.4685 17.8027 50.633 17.7823C52.0698 17.5866 53.5067 17.3787 54.9484 17.1912C55.2242 17.1545 55.3596 17.0159 55.495 16.8528C55.5434 16.7958 55.5821 16.702 55.6402 16.6938C56.3562 16.5797 57.0673 16.4615 57.7882 16.384C58.0881 16.3514 58.1898 16.1802 58.3107 16.0171C58.4075 15.8867 58.5188 15.8418 58.7026 15.8255C59.1041 15.7888 59.5008 15.7196 59.8927 15.6503C59.9508 15.638 60.0233 15.5483 60.0282 15.4913C60.0378 15.3853 59.9265 15.3119 59.7427 15.2752C57.8269 15.5402 55.9063 15.8051 53.9905 16.0701C53.6761 16.1149 53.6761 16.115 53.2503 16.5022C53.202 16.5471 53.1342 16.6001 53.0664 16.6123C51.228 16.8692 49.3946 17.1219 47.5562 17.3787C47.4014 17.3991 47.2901 17.4929 47.2127 17.6315C47.1353 17.7701 47.0239 17.8638 46.874 17.8842C45.1178 18.1288 43.3617 18.3775 41.6007 18.6099C41.3395 18.6425 41.1557 18.7362 41.0396 18.9237C40.9525 19.0623 40.8461 19.1357 40.6816 19.1561C39.0028 19.3844 37.3289 19.6249 35.6453 19.845C35.476 19.8654 35.3503 19.7472 35.3599 19.6371C35.3648 19.5801 35.4372 19.4863 35.4953 19.4782C36.371 19.3437 37.2419 19.205 38.1223 19.1031C38.4174 19.0705 38.5045 18.8911 38.6544 18.7403C38.7028 18.6873 38.7415 18.618 38.8044 18.5895C38.8722 18.5569 38.9592 18.5609 39.0415 18.5528C41.1169 18.2634 43.1924 17.9698 45.2727 17.6967C45.5727 17.6559 45.6306 17.4562 45.7854 17.3135C45.8386 17.2646 45.8871 17.1912 45.95 17.1831C46.5886 17.0852 47.2271 16.9996 47.8657 16.914C48.9833 16.7591 50.1008 16.6042 51.2232 16.4493C51.5473 16.4044 51.5473 16.4044 51.9634 16.0212C52.0118 15.9763 52.0796 15.9193 52.1424 15.9112C55.0984 15.4994 58.0543 15.0877 61.0103 14.68C61.1651 14.6596 61.2763 14.5659 61.3537 14.4273C61.4311 14.2927 61.5424 14.1949 61.6924 14.1704C65.6884 13.616 69.6797 13.0616 73.6758 12.5153C73.937 12.4786 74.1208 12.393 74.2369 12.2014C74.3191 12.0628 74.4304 11.9895 74.5949 11.965C78.9877 11.3576 83.3804 10.7502 87.7781 10.1387C90.734 9.73103 93.69 9.31521 96.6459 8.91571C96.9168 8.87902 97.0619 8.75262 97.1973 8.58548C97.2409 8.52841 97.2845 8.43464 97.3425 8.42648C97.9763 8.32457 98.61 8.23082 99.2438 8.13706C99.4421 8.24713 99.6404 8.35314 99.8388 8.46321C99.9888 8.3083 100.134 8.1493 100.284 7.99439C101.242 7.87617 102.185 7.69272 103.153 7.63565C103.216 7.63157 103.283 7.70904 103.351 7.7498C103.801 8.00663 104.057 7.98624 104.343 7.64381C104.444 7.52151 104.532 7.41145 104.686 7.39106C105.165 7.31768 105.649 7.26876 106.123 7.18315C106.38 7.13831 106.592 7.17907 106.776 7.32582C106.907 7.43181 107.042 7.47668 107.202 7.45222C108.083 7.32992 108.958 7.21169 109.839 7.08124C109.902 7.07308 109.96 7.00376 110.008 6.95484C110.11 6.84885 110.197 6.73473 110.293 6.62466C110.424 6.69396 110.569 6.74697 110.676 6.83665C110.811 6.94264 110.937 6.94262 111.121 6.91408C114.633 6.42081 118.15 5.93978 121.662 5.44244C121.962 5.40167 122.093 5.5729 122.296 5.66259C122.364 5.6952 122.432 5.73595 122.504 5.7441C122.582 5.75225 122.664 5.72782 122.741 5.71559C125.378 5.34869 128.015 4.98585 130.651 4.61896C131 4.57004 131 4.57004 131.517 4.82279C131.58 4.8554 131.662 4.89209 131.73 4.87986C132.93 4.72088 134.13 4.54968 135.325 4.38661C135.479 4.36623 135.61 4.43144 135.75 4.5252C136.026 4.70865 136.045 4.70866 136.249 4.43961C136.345 4.31323 136.447 4.23574 136.607 4.19905C136.781 4.15829 136.921 4.17056 137.057 4.24394C137.25 4.34586 137.39 4.51705 137.685 4.4722C138.963 4.2806 140.245 4.12163 141.517 3.92595C141.807 3.88111 141.962 4.01971 142.156 4.12162C142.223 4.15831 142.286 4.21539 142.359 4.22762C142.431 4.23985 142.518 4.21128 142.596 4.19905C144.192 3.97892 145.794 3.7629 147.385 3.52646C147.685 3.48161 147.816 3.65687 148.019 3.74656C148.087 3.77917 148.164 3.83627 148.227 3.82812C149.185 3.70175 150.148 3.56718 151.106 3.43265C151.449 3.38373 151.449 3.38781 151.972 3.63648C152.034 3.66909 152.117 3.70171 152.185 3.69356C153.302 3.54273 154.424 3.38781 155.542 3.2329C155.885 3.18398 155.885 3.18399 156.877 3.39598C156.95 3.41228 157.027 3.43677 157.1 3.42862C158.377 3.25333 159.659 3.08209 160.936 2.89456C161.193 2.85787 161.405 2.89048 161.589 3.03723C161.72 3.14323 161.855 3.18809 162.015 3.16363C163.452 2.96388 164.894 2.77229 166.326 2.5603C166.601 2.51954 166.78 2.60919 166.974 2.72741C167.037 2.76817 167.1 2.82526 167.172 2.84157C167.245 2.85787 167.327 2.84155 167.404 2.82932C168.841 2.62957 170.283 2.44205 171.715 2.22599C172.005 2.18115 172.16 2.31975 172.354 2.42166C172.421 2.45835 172.494 2.53174 172.552 2.52766C173.113 2.45836 173.674 2.39723 174.231 2.29531C174.53 2.23824 174.661 2.42573 174.864 2.51542C174.932 2.54395 175.009 2.60513 175.072 2.59698C176.272 2.43799 177.472 2.27086 178.667 2.09965C178.836 2.07519 178.962 2.11184 179.097 2.21783C179.276 2.36051 179.485 2.41759 179.746 2.37275C180.302 2.27898 180.863 2.21378 181.424 2.13632C181.753 2.09148 181.753 2.09149 182.76 2.30348C182.832 2.31978 182.91 2.34422 182.982 2.33607C183.94 2.20562 184.903 2.07925 185.856 1.93657C186.112 1.89581 186.325 1.93249 186.509 2.07924C186.64 2.18523 186.77 2.2301 186.935 2.20564C187.815 2.08334 188.691 1.96104 189.571 1.83874C189.891 1.7939 190.21 1.71642 190.529 1.71642C190.762 1.7205 190.931 1.91617 191.139 2.014C191.197 2.04254 191.294 2.00996 191.371 2.00181C192.489 1.8469 193.611 1.70421 194.724 1.52891C195.014 1.48407 195.169 1.62267 195.362 1.72458C195.43 1.76127 195.503 1.83465 195.561 1.83058C195.962 1.78573 196.359 1.72458 196.76 1.67158C197.239 1.60636 197.723 1.55744 198.197 1.46775C198.584 1.39437 198.729 1.74903 199.039 1.76126C199.276 1.77349 199.518 1.7042 199.755 1.67158C200.234 1.60636 200.713 1.53299 201.192 1.47591C201.361 1.45553 201.492 1.39028 201.545 1.24352C201.555 1.21498 201.473 1.15386 201.419 1.11717C200.776 0.701359 200.776 0.701339 200.128 0.791024C199.726 0.848097 199.329 0.905179 198.928 0.954098C198.86 0.962251 198.783 0.92964 198.715 0.905181C198.521 0.835879 198.541 0.754355 198.705 0.607597C198.87 0.46084 198.996 0.281485 199.136 0.114345C199.334 0.220336 199.528 0.32629 199.726 0.432282C199.886 0.411899 200.045 0.387475 200.205 0.367092C201.003 0.2611 201.802 0.151024 202.6 0.0531858C202.658 0.0450327 202.73 0.126577 202.798 0.167343C202.992 0.285564 203.166 0.387451 203.446 0.342608C204.162 0.224387 204.883 0.138778 205.599 0.0368635C205.914 -0.00797904 205.914 -0.00797506 206.465 0.244774C206.528 0.27331 206.61 0.305925 206.678 0.297772C207.399 0.20401 208.115 0.102107 208.836 0.00426866C208.991 -0.0161143 209.141 0.0368795 209.252 0.155101C209.295 0.20402 209.286 0.285536 209.47 0.954098C210.04 1.49629 210.432 1.43924 210.829 1.39032C210.998 1.36994 211.148 1.34954 211.26 1.268C211.318 1.22316 211.39 1.15793 211.39 1.10493C211.39 1.06416 211.284 0.998927 211.216 0.990773C210.737 0.909242 210.282 1.08048 209.813 1.11717C209.595 1.13348 209.407 0.990795 209.368 0.758429C209.358 0.693204 209.344 0.623906 209.329 0.55868C209.315 0.493454 209.305 0.424156 209.291 0.358931C209.102 0.338548 208.991 0.411914 208.908 0.550519C208.841 0.664664 208.744 0.795115 208.613 0.856264C208.483 0.921489 208.304 0.909281 208.144 0.929664C207.989 0.950047 207.82 1.00304 207.675 0.974501C207.53 0.941888 207.413 0.823647 207.278 0.750268C207.215 0.713579 207.138 0.660603 207.075 0.668756C206.518 0.738058 205.967 0.807335 205.415 0.89702C205.125 0.945939 204.98 0.774748 204.796 0.668756C204.651 0.587224 204.506 0.607581 204.482 0.795105C204.419 1.24353 204.641 1.43104 205.135 1.34544C205.541 1.27206 205.909 1.25986 206.228 1.53707C206.272 1.57376 206.373 1.59006 206.436 1.58191C206.833 1.53299 207.225 1.47184 207.621 1.42292C207.694 1.41476 207.772 1.43104 207.839 1.44735C208.826 1.66749 208.826 1.67159 209.16 1.62267C209.32 1.59821 209.474 1.57782 209.46 0.958179C209.765 0.293693 210.248 0.248859 210.718 0.15102C211.023 0.0898712 211.153 0.26925 211.351 0.363011C211.419 0.395624 211.492 0.460838 211.555 0.452684C212.595 0.318157 213.63 0.175456 214.665 0.0246218C214.84 0.000162207 214.965 0.0246258 215.101 0.130617C215.275 0.265145 215.468 0.350772 215.744 0.301852C216.296 0.204014 216.857 0.142879 217.418 0.061347C217.704 0.020581 217.704 0.0205392 218.279 0.273288C218.342 0.301825 218.424 0.334439 218.492 0.326286C219.053 0.256984 219.61 0.171401 220.166 0.0980225C220.321 0.0776395 220.461 0.134706 220.582 0.244774C220.703 0.354842 220.848 0.411909 220.998 0.391526C221.559 0.318147 222.116 0.236641 222.672 0.163262C222.74 0.155109 222.822 0.183643 222.885 0.212179C223.475 0.464928 223.475 0.464886 223.746 0.42412C224.143 0.362971 224.549 0.334467 224.941 0.252935C225.323 0.171403 225.522 0.407826 225.783 0.538277C226.499 0.444515 227.22 0.36708 227.931 0.252935C228.221 0.204016 228.376 0.338532 228.569 0.444523C228.637 0.481213 228.705 0.558676 228.768 0.554599C229.01 0.538293 229.247 0.493458 229.484 0.460846C229.721 0.428233 229.963 0.395624 230.2 0.363011C230.471 0.481233 230.65 0.758437 231.037 0.664676C231.269 0.607603 231.516 0.595373 231.753 0.562761C231.99 0.530148 232.232 0.497539 232.469 0.464926C232.628 0.444543 232.793 0.432296 232.948 0.395606C233.233 0.334457 233.373 0.534234 233.577 0.623919C233.644 0.652456 233.722 0.701343 233.785 0.69319C234.264 0.636117 234.747 0.587202 235.217 0.493441C235.579 0.420062 235.826 0.542376 236.083 0.713593C236.136 0.750282 236.228 0.770663 236.295 0.76251C236.857 0.693208 237.413 0.607575 237.969 0.534197C238.119 0.513814 238.264 0.579037 238.385 0.685029C238.511 0.795097 238.651 0.848132 238.806 0.827749C239.363 0.754371 239.924 0.672815 240.48 0.599436C240.548 0.591283 240.63 0.623902 240.693 0.656514C241.235 0.909263 241.235 0.913344 241.554 0.864425C241.632 0.852195 241.714 0.84401 241.791 0.83178C242.188 0.774708 242.599 0.754353 242.986 0.656514C243.431 0.546446 243.755 0.685057 244.07 0.917423C244.467 0.868503 244.873 0.839961 245.26 0.758429C245.55 0.69728 245.705 0.852183 245.899 0.954098C245.966 0.990787 246.039 1.06417 246.097 1.05601C246.658 0.986711 247.219 0.925584 247.771 0.823669C248.071 0.766596 248.201 0.95001 248.405 1.04377C248.472 1.07638 248.545 1.13349 248.608 1.12533C248.927 1.09272 249.246 1.04378 249.566 0.998935C249.938 0.945939 249.938 0.950011 250.432 1.19868C250.664 1.31691 250.896 1.22314 251.124 1.1946C251.365 1.16199 251.593 1.13754 251.786 1.30468C251.907 1.41067 252.052 1.4759 252.202 1.45959C252.522 1.4229 252.846 1.38623 253.16 1.32508C253.412 1.27616 253.629 1.30876 253.813 1.45959C253.944 1.56558 254.079 1.61861 254.239 1.59415C254.955 1.49631 255.676 1.39436 256.392 1.3006C256.455 1.29245 256.542 1.32915 256.6 1.36584C256.735 1.43922 256.866 1.52073 256.997 1.60226C257.311 1.56557 257.635 1.54931 257.945 1.49224C258.274 1.43516 258.574 1.41478 258.83 1.63899C258.883 1.68791 258.961 1.75717 259.024 1.7531C259.266 1.73679 259.503 1.69604 259.74 1.66342C259.977 1.63081 260.219 1.5982 260.456 1.56559C260.731 1.6675 260.906 1.96101 261.293 1.86725C261.525 1.81018 261.772 1.79795 262.009 1.76534C262.246 1.73272 262.488 1.69604 262.725 1.6675C262.802 1.65935 262.889 1.63895 262.957 1.65526C263.029 1.67157 263.092 1.72865 263.155 1.76942C263.349 1.88764 263.528 2.00587 263.804 1.93657C264.036 1.8795 264.283 1.86727 264.52 1.83058C264.844 1.78573 264.844 1.78574 265.381 2.04257C265.598 2.14856 265.845 2.00996 266.053 2.09965C266.193 2.16079 266.314 2.26269 266.45 2.33199C266.508 2.36053 266.6 2.37274 266.668 2.36459C266.987 2.3279 267.311 2.29122 267.625 2.23008C267.882 2.18116 268.095 2.23007 268.274 2.37683C268.404 2.48282 268.535 2.52768 268.699 2.50323C269.498 2.38908 270.296 2.29121 271.089 2.16484C271.36 2.11999 271.578 2.18931 271.728 2.33607C271.984 2.58882 272.347 2.29123 272.613 2.49506C272.778 2.62144 272.942 2.7682 273.242 2.70706C273.794 2.60106 274.355 2.54396 274.911 2.47058C275.11 2.58065 275.308 2.69074 275.511 2.80081C275.83 2.75597 276.15 2.7111 276.469 2.67033C276.706 2.63772 276.948 2.60103 277.185 2.5725C277.262 2.56434 277.345 2.54803 277.417 2.56841C277.49 2.5888 277.548 2.64181 277.616 2.68257C277.949 2.88232 277.949 2.88642 278.501 2.80489C278.738 2.7682 278.965 2.74374 279.164 2.9068C279.348 3.05764 279.565 3.08616 279.817 3.04131C280.291 2.95978 280.77 2.89864 281.254 2.84157C281.404 2.82118 281.544 2.89049 281.67 2.99648C281.858 3.16362 282.091 3.14732 282.328 3.10247C282.642 3.0454 282.952 2.98834 283.218 3.21663C283.271 3.26555 283.353 3.33481 283.411 3.33074C283.808 3.29812 284.21 3.27368 284.597 3.19623C284.984 3.11877 285.172 3.37151 285.438 3.49381C285.835 3.44081 286.237 3.38781 286.633 3.33482C286.711 3.32259 286.803 3.28592 286.87 3.3063C287.156 3.39191 287.32 3.69765 287.712 3.60389C287.94 3.55089 288.186 3.5346 288.423 3.52237C288.486 3.5183 288.569 3.58757 288.612 3.64056C288.636 3.6691 288.612 3.74655 288.583 3.78731C288.496 3.90146 288.389 4.00748 288.312 4.1257C288.302 4.14201 288.394 4.21536 288.448 4.24797C288.578 4.32135 288.728 4.30915 288.902 4.27654C289.052 4.248 289.207 4.30507 289.314 4.42737C289.357 4.47629 289.343 4.55781 289.251 4.82687C289.251 5.02662 289.352 4.93691 289.386 4.80646C289.439 4.61894 289.338 4.5578 289.144 4.65971C289.009 4.73309 288.941 4.83909 288.975 4.9247C288.994 4.96954 289.086 5.02662 289.251 4.82687C289.676 4.58227 289.996 4.53745 290.315 4.49261C290.397 4.48038 290.494 4.43958 290.552 4.46404C290.76 4.56188 290.954 4.68012 291.157 4.79019C291.389 4.76573 291.607 4.70455 291.834 4.86354C292.153 5.08775 292.168 5.06738 292.478 5.02253C292.637 4.99808 292.797 4.97773 292.956 4.95735C293.116 4.93696 293.242 4.99809 293.382 5.09186C293.668 5.28346 293.692 5.28344 293.88 5.02253C293.992 4.86355 294.069 4.81057 294.209 4.88394C294.674 5.13262 294.679 5.14891 295.075 5.07553C295.404 5.01438 295.714 4.99808 295.956 5.23045C296.12 5.39351 296.174 5.35683 296.304 5.18561C296.653 4.73311 296.812 4.74124 297.465 5.06737C297.77 5.22228 298.085 5.05516 298.394 5.03478C298.655 5.01847 298.839 5.11629 298.859 5.37312C298.873 5.5321 298.917 5.64627 299.091 5.69926C299.159 5.71965 299.241 5.74817 299.309 5.74002C299.71 5.6911 300.107 5.63402 300.508 5.57695C300.712 5.54841 300.823 5.35685 300.784 5.1041C300.741 4.83504 300.818 4.73717 301.108 4.65971C301.282 4.61487 301.423 4.62306 301.563 4.69644C301.718 4.77797 301.674 4.85134 301.539 4.9981C301.215 5.35684 301.253 5.57694 301.669 5.82561C301.815 5.91122 301.931 5.98871 301.965 6.11509C301.984 6.18031 301.965 6.26592 302.008 6.31483C302.245 6.58797 302.574 6.76328 302.942 6.89373C303.295 6.78366 303.537 6.96707 303.808 7.11383C304.021 7.22798 304.272 7.13016 304.5 7.0894C304.756 7.04456 304.969 7.07715 305.153 7.22799C305.283 7.33398 305.419 7.38288 305.578 7.3625C305.898 7.31766 306.222 7.28913 306.536 7.22391C306.807 7.16684 307.01 7.24838 307.18 7.38698C307.393 7.56228 307.63 7.44403 307.852 7.46849C308.152 7.49703 308.302 7.85984 308.694 7.762C308.926 7.70492 309.168 7.68455 309.41 7.66824C309.473 7.66417 309.55 7.73348 309.604 7.7824C309.86 8.00661 310.16 7.99438 310.489 7.92915C310.716 7.88431 310.939 7.84356 311.161 7.99847C311.529 8.25937 311.935 8.48768 312.322 8.7282C312.376 8.91572 312.337 9.13582 312.613 9.24588C312.758 9.30296 312.893 9.3886 313.005 9.48236C313.14 9.59243 313.266 9.62097 313.44 9.59243C313.754 9.53536 314.083 9.52309 314.393 9.44971C314.678 9.38449 314.857 9.51906 315.032 9.64543C315.172 9.74735 315.303 9.79624 315.472 9.72286C315.646 9.65356 315.772 9.69839 315.912 9.80846C316.11 9.95929 316.125 9.94301 316.783 9.98785C316.851 9.99193 316.933 10.053 316.972 10.106C316.991 10.1346 316.947 10.2162 316.914 10.2569C316.87 10.3058 316.802 10.3629 316.739 10.3751C316.023 10.4811 315.303 10.5749 314.587 10.6809C314.514 10.6931 314.437 10.7217 314.383 10.7624C314.325 10.8073 314.253 10.8684 314.253 10.9254C314.253 10.9662 314.349 11.0151 314.417 11.0437C314.63 11.1374 314.882 10.9948 315.09 11.1008C315.23 11.1701 315.346 11.2679 315.486 11.3331C315.544 11.3616 315.636 11.3576 315.709 11.3494C315.951 11.3209 316.188 11.2801 316.43 11.2557C316.497 11.2516 316.575 11.2924 316.638 11.325C317.102 11.5696 317.102 11.5696 317.504 11.5166C317.663 11.4962 317.833 11.435 317.983 11.4595C318.128 11.484 318.254 11.594 318.384 11.6633C318.655 11.8101 318.912 11.9528 318.931 12.2707C318.941 12.393 319.1 12.499 319.26 12.5072C319.415 12.5153 319.579 12.4705 319.739 12.4461C320.116 12.3971 320.116 12.3971 320.605 12.6458C320.74 12.7151 320.885 12.7232 321.06 12.6825C321.127 12.6662 321.21 12.6825 321.282 12.7029C321.519 12.764 321.519 12.8415 321.364 12.9882C321.147 13.2043 321.166 13.2247 321.776 13.4081C322.008 13.4774 322.187 13.6079 322.38 13.722C322.695 13.9055 322.69 13.9054 322.482 14.146C322.434 14.199 322.39 14.256 322.342 14.3131C322.201 14.4721 322.09 14.6433 321.8 14.6596C321.48 14.6759 321.161 14.7412 320.842 14.786C320.532 14.8309 320.45 14.9287 320.479 15.2059C320.513 15.5401 320.576 15.5768 321.132 15.5728C321.292 15.5728 321.432 15.6054 321.553 15.7154C321.495 15.8459 321.389 15.9478 321.234 15.9723C320.837 16.0334 320.436 16.0864 320.039 16.1394C319.72 16.1843 319.4 16.2291 319.081 16.2739C318.883 16.3025 318.757 16.5145 318.81 16.7509C318.839 16.8854 318.863 17.02 318.887 17.1545C318.941 17.4235 319.042 17.4929 319.366 17.4806C319.449 17.4766 319.526 17.4439 319.603 17.4521C319.918 17.4806 320.068 17.819 320.445 17.7497C320.76 17.6926 321.089 17.6804 321.398 17.607C321.684 17.5418 321.843 17.6886 322.042 17.7986C322.109 17.8353 322.182 17.9127 322.24 17.9087C322.642 17.8638 323.043 17.819 323.435 17.7416C323.619 17.7089 323.73 17.7334 323.875 17.8312C324.224 18.0677 324.233 18.0554 324.751 17.9821C325.128 17.925 325.133 17.9331 325.617 18.1818C325.752 18.2511 325.897 18.2511 326.072 18.2185C326.299 18.1777 326.536 18.1125 326.773 18.1736C326.846 18.19 326.938 18.2389 326.962 18.2919C326.976 18.3286 326.909 18.4183 326.851 18.4468C326.425 18.6588 325.926 18.6221 325.462 18.7077C325.317 18.7322 325.172 18.6547 325.051 18.5446C324.925 18.4346 324.79 18.3897 324.625 18.4101C324.306 18.455 323.982 18.4835 323.667 18.5487C323.396 18.6058 323.208 18.512 323.019 18.3856C322.956 18.3449 322.883 18.2674 322.821 18.2715C322.105 18.353 321.384 18.4346 320.673 18.5487C320.387 18.5976 320.223 18.4672 320.029 18.3571C319.961 18.3204 319.894 18.243 319.831 18.247C319.589 18.2634 319.352 18.3082 319.11 18.3408C318.229 18.4631 317.354 18.5854 316.473 18.6995C316.415 18.7077 316.343 18.6221 316.275 18.5854C316.144 18.512 316.009 18.4427 315.873 18.3734C315.631 18.406 315.394 18.4468 315.153 18.4712C314.978 18.4875 314.824 18.5446 314.799 18.6995C314.785 18.8015 314.945 18.8952 315.114 18.887C315.278 18.8789 315.443 18.83 315.578 18.883C316.251 19.1439 316.251 19.148 316.672 19.095C317.039 19.046 317.001 19.0053 317.325 19.2295C317.465 19.3273 317.591 19.3844 317.75 19.3599C318.147 19.3029 318.549 19.2458 318.95 19.1969C319.013 19.1887 319.095 19.2295 319.158 19.2621C319.632 19.5067 319.632 19.5149 320.024 19.4537C320.537 19.3803 320.556 19.3599 320.9 19.6086C321.137 19.7798 321.355 19.6616 321.582 19.6535C321.843 19.8124 322.129 19.9551 322.366 20.1345C322.646 20.3465 322.941 20.3098 323.261 20.2486C323.498 20.2038 323.73 20.1875 323.924 20.3546C324.107 20.5095 324.33 20.5259 324.581 20.4851C324.809 20.4484 325.041 20.3709 325.278 20.4606C325.341 20.4851 325.438 20.5462 325.433 20.5829C325.428 20.64 325.365 20.7215 325.302 20.746C324.857 20.9131 324.369 20.9091 323.899 20.9865C323.837 20.9987 323.754 20.9539 323.691 20.9213C323.556 20.8479 323.425 20.7623 323.295 20.6848C323.058 20.7093 322.816 20.7174 322.584 20.7664C322.405 20.803 322.269 20.799 322.138 20.7012C322.017 20.6115 321.887 20.5014 321.742 20.4729C321.597 20.4443 321.427 20.5055 321.268 20.5299C321.108 20.5544 320.924 20.5421 320.798 20.6074C320.673 20.6726 320.595 20.8153 320.513 20.9294C320.421 21.0558 320.295 21.0966 320.111 21.1088C319.942 21.1211 319.807 21.1047 319.681 20.9906C319.628 20.9417 319.555 20.905 319.482 20.8724C319.415 20.8438 319.337 20.799 319.274 20.8071C318.554 20.9009 317.838 21.0028 317.117 21.1007C316.759 21.1496 316.764 21.1495 316.019 20.909C315.951 20.8886 315.869 20.8601 315.801 20.8683C315.399 20.9172 315.003 20.9743 314.601 21.0313C314.195 21.0884 314.199 21.0803 313.508 20.8234C313.382 20.7745 313.198 20.8397 313.048 20.8316C312.734 20.8112 312.579 20.4688 312.211 20.534C311.897 20.5911 311.568 20.6033 311.253 20.6767C310.968 20.7419 310.803 20.5992 310.61 20.4892C310.542 20.4525 310.469 20.3709 310.411 20.3791C309.691 20.4688 308.975 20.5707 308.017 20.5829C307.78 20.5829 307.886 20.6685 308.041 20.6971C308.263 20.7419 308.336 20.6563 308.215 20.4933C308.128 20.3791 308.002 20.322 307.901 20.3505C307.847 20.3668 307.78 20.4443 308.017 20.5829C308.268 20.7378 308.254 20.8234 308.297 20.8724C308.404 20.9906 308.554 21.0395 308.709 21.0232C308.95 20.9946 309.188 20.9539 309.429 20.9294C309.497 20.9213 309.579 20.9498 309.642 20.9824C310.174 21.2352 310.179 21.2515 310.745 21.1537C310.924 21.1251 311.055 21.1251 311.195 21.2026C311.389 21.3086 311.529 21.4879 311.824 21.4308C312.216 21.3534 312.618 21.3086 313.019 21.2637C313.082 21.2556 313.15 21.329 313.222 21.3616C313.421 21.4594 313.566 21.6429 313.861 21.5654C314.088 21.5043 314.335 21.4879 314.577 21.4757C314.64 21.4716 314.736 21.5368 314.765 21.5898C314.824 21.6836 314.751 21.7937 314.587 21.8711C314.519 21.9038 314.427 21.8956 314.349 21.9078C314.03 21.9527 313.711 22.0016 313.392 22.0383C313.222 22.0586 313.063 22.1198 313.043 22.2706C313.029 22.3726 313.203 22.4622 313.367 22.4541C313.609 22.4418 313.851 22.4092 314.083 22.3562C314.495 22.2666 314.853 22.291 315.186 22.5478C315.423 22.7272 315.409 22.662 315.661 23.192C315.723 23.3265 315.912 23.3387 316.077 23.3306C316.473 23.3102 316.657 23.3713 316.623 23.4977C316.58 23.6526 316.439 23.7015 316.26 23.7219C315.941 23.7545 315.622 23.8075 315.303 23.8524C315.225 23.8646 315.138 23.889 315.065 23.8809C314.993 23.8727 314.925 23.8238 314.862 23.7871C314.727 23.7097 314.611 23.5914 314.466 23.5629C314.32 23.5344 314.151 23.5955 313.991 23.62C313.832 23.6404 313.663 23.7015 313.517 23.673C313.372 23.6444 313.251 23.5222 313.121 23.4488C313.058 23.4121 312.98 23.355 312.917 23.3591C312.598 23.3917 312.279 23.4447 311.96 23.4855C311.568 23.5385 311.568 23.5385 311.094 23.2857C310.958 23.2123 310.818 23.2164 310.639 23.249C310.252 23.3143 310.247 23.302 309.541 23.0656C309.473 23.0411 309.391 23.0126 309.323 23.0248C308.602 23.1186 307.886 23.2205 307.17 23.3183C306.556 23.4039 306.556 23.404 306.217 23.8116C305.965 24.1133 305.961 24.1133 306.207 24.2519C306.406 24.366 306.585 24.5331 306.802 24.5943C307.006 24.6514 307.257 24.4679 307.48 24.6554C307.591 24.7492 307.736 24.8511 307.876 24.8674C308.099 24.8878 308.336 24.7696 308.549 24.9489C308.655 25.0386 308.815 25.1324 308.95 25.1365C309.188 25.1447 309.429 25.0794 309.666 25.0509C309.739 25.0427 309.821 25.0427 309.889 25.0631C309.962 25.0876 310.024 25.1365 310.087 25.1773C310.281 25.3159 310.489 25.3811 310.74 25.3118C311.152 25.1976 311.519 25.2547 311.839 25.5156C311.882 25.5523 311.989 25.5564 312.056 25.5401C312.23 25.4993 312.38 25.4952 312.511 25.5727C312.564 25.6053 312.642 25.6623 312.632 25.699C312.617 25.7602 312.559 25.8417 312.497 25.8621C312.042 26.0007 311.553 26.017 311.084 26.0904C311.021 26.0986 310.944 26.0455 310.881 26.0089C310.745 25.9355 310.629 25.8132 310.484 25.7847C310.339 25.7561 310.17 25.8091 310.01 25.8295C309.85 25.8499 309.681 25.911 309.536 25.8866C309.391 25.858 309.255 25.7561 309.139 25.6664C309.004 25.5645 308.873 25.5523 308.694 25.5931C308.462 25.6461 308.22 25.6542 307.983 25.6828C307.852 25.6053 307.722 25.5197 307.586 25.4463C307.523 25.4096 307.446 25.3648 307.378 25.3688C307.059 25.4015 306.739 25.4504 306.42 25.4952C306.101 25.54 306.101 25.5401 305.559 25.2873C305.496 25.2588 305.414 25.2262 305.346 25.2343C304.945 25.2833 304.548 25.3444 304.146 25.3933C303.992 25.4137 303.851 25.3566 303.726 25.2465C303.605 25.1365 303.459 25.0753 303.309 25.0957C302.671 25.1813 302.032 25.2629 301.394 25.3648C301.137 25.4055 300.92 25.3689 300.745 25.2221C300.542 25.055 300.315 25.0957 300.078 25.1283C299.541 25.2099 299.536 25.2058 299.192 24.9979C299.125 24.9571 299.057 24.8796 298.994 24.8837C298.438 24.9449 297.877 25.0019 297.325 25.0998C297.035 25.1528 296.88 25.0101 296.686 24.9041C296.619 24.8674 296.546 24.79 296.488 24.7981C296.087 24.843 295.685 24.8837 295.293 24.9653C294.901 25.0468 294.751 24.6677 294.456 24.6718C294.055 24.6758 293.658 24.7696 293.261 24.8267C292.942 24.8715 292.623 24.9163 292.303 24.9612C291.984 25.006 291.665 25.0427 291.345 25.0957C291.176 25.1242 291.05 25.0875 290.91 24.9856C290.731 24.8511 290.518 24.7451 290.325 24.6229C290.03 24.4476 290.03 24.4475 289.672 24.4965C289.594 24.5087 289.512 24.5168 289.435 24.529C288.849 24.6187 288.849 24.6106 288.104 24.3538C288.07 24.3416 287.983 24.3864 287.949 24.419C287.848 24.525 287.756 24.6391 287.664 24.7492C287.533 24.684 287.374 24.6473 287.287 24.5535C287.04 24.2886 286.653 24.6514 286.401 24.3905C286.309 24.2926 286.15 24.207 286.004 24.1825C285.854 24.1581 285.685 24.2152 285.53 24.2396C285.129 24.3008 285.129 24.2967 284.785 24.6595C284.611 24.8389 284.36 24.8063 284.132 24.847C283.895 24.8919 283.668 24.9163 283.469 24.7492C283.29 24.5984 283.073 24.5617 282.816 24.6106C282.502 24.6718 282.178 24.7084 281.858 24.7451C281.791 24.7533 281.708 24.7329 281.641 24.7084C280.9 24.4679 280.9 24.4639 280.542 24.5169C280.383 24.5413 280.218 24.5494 280.064 24.5861C279.802 24.6514 279.604 24.5657 279.415 24.4353C279.352 24.3945 279.28 24.3171 279.217 24.3212C278.898 24.3416 278.583 24.3783 278.269 24.4149C278.027 24.4435 277.785 24.4598 277.553 24.5169C277.166 24.6106 276.977 24.3456 276.711 24.2233C276.314 24.2763 275.913 24.313 275.516 24.3864C275.332 24.419 275.211 24.4068 275.071 24.3089C274.892 24.1866 274.727 24.048 274.437 24.1092C274.05 24.1907 273.644 24.2193 273.247 24.2682C272.981 24.1418 272.787 23.885 272.405 23.9787C272.173 24.0358 271.926 24.048 271.689 24.0806C271.37 24.1255 271.051 24.1663 270.731 24.2152C270.388 24.2641 270.393 24.2519 269.865 24.0114C269.561 23.8687 269.246 24.0277 268.936 24.0521C268.695 24.0725 268.574 24.26 268.632 24.5005C268.69 24.7411 268.559 24.9286 268.337 24.9612C267.78 25.0386 267.219 25.1202 266.663 25.1895C266.595 25.1976 266.513 25.1691 266.45 25.1405C265.855 24.8837 265.855 24.8878 265.589 24.9245C265.192 24.9857 264.786 25.0182 264.394 25.0957C264.123 25.1487 263.924 25.0631 263.75 24.9245C263.615 24.8185 263.489 24.7941 263.315 24.8185C261.399 25.0917 259.483 25.3444 257.572 25.6257C257.287 25.6664 257.122 25.5482 256.929 25.4382C256.861 25.4015 256.798 25.324 256.731 25.324C256.571 25.324 256.411 25.3607 256.252 25.3852C255.536 25.483 254.82 25.6012 254.099 25.6746C253.794 25.7072 253.712 25.8947 253.581 26.0497C253.48 26.1679 253.363 26.2168 253.184 26.2331C253.01 26.2494 252.884 26.229 252.749 26.123C252.575 25.9844 252.377 25.8988 252.106 25.9559C251.791 26.0211 251.472 26.0497 251.148 26.0945C250.983 26.1149 250.857 26.1882 250.804 26.335C250.794 26.3595 250.896 26.4206 250.954 26.4573C251.148 26.5796 251.332 26.7223 251.549 26.8079C251.772 26.8935 252.014 26.7956 252.246 26.7712C252.328 26.763 252.405 26.7386 252.483 26.7427C252.555 26.7467 252.643 26.7671 252.696 26.8038C252.947 26.9873 253.213 27.1136 253.562 27.0036C253.862 27.0566 254.017 27.3949 254.399 27.3052C254.631 27.2522 254.873 27.2278 255.115 27.2074C255.178 27.2033 255.245 27.2767 255.313 27.3134C255.507 27.4153 255.661 27.5784 255.952 27.5091C256.261 27.4357 256.59 27.4235 256.905 27.3664C257.079 27.3338 257.205 27.3623 257.34 27.4683C257.514 27.6028 257.713 27.7047 257.984 27.6395C258.216 27.5824 258.463 27.5702 258.7 27.5335C259.009 27.4887 259.009 27.4927 259.561 27.7455C259.624 27.774 259.706 27.8066 259.774 27.7985C260.175 27.7496 260.572 27.6884 260.973 27.6395C261.128 27.6191 261.278 27.6721 261.385 27.7903C261.428 27.8392 261.414 27.9208 261.428 27.9901C260.63 28.1002 259.832 28.1939 259.038 28.3285C258.738 28.3815 258.603 28.2143 258.404 28.1206C258.337 28.0879 258.264 28.0186 258.201 28.0268C257.64 28.0961 257.084 28.1695 256.527 28.2591C256.353 28.2877 256.223 28.2714 256.092 28.1531C255.758 27.8392 255.352 28.0105 254.974 28.0553C254.684 28.0879 254.592 28.2143 254.626 28.4834C254.67 28.8013 254.844 28.8992 255.289 28.8421C255.449 28.8217 255.608 28.7932 255.768 28.7769C255.923 28.7606 256.063 28.8136 256.189 28.9236C256.31 29.0337 256.455 29.0908 256.605 29.0745C256.924 29.0378 257.248 29.0011 257.558 28.94C257.814 28.891 258.027 28.9318 258.206 29.0826C258.404 29.2498 258.637 29.2131 258.869 29.1764C259.411 29.0948 259.416 29.0989 259.754 29.3028C259.822 29.3435 259.89 29.421 259.953 29.4169C260.509 29.3558 261.07 29.3028 261.617 29.2049C261.902 29.156 262.067 29.2865 262.255 29.3924C262.323 29.4291 262.391 29.5107 262.454 29.5025C262.855 29.4577 263.257 29.4128 263.649 29.3354C263.833 29.2987 263.944 29.3231 264.094 29.421C264.452 29.6615 264.461 29.6533 264.969 29.5759C265.124 29.5514 265.294 29.5066 265.439 29.5392C265.584 29.5718 265.7 29.6901 265.835 29.7634C265.898 29.796 265.976 29.8409 266.043 29.8327C266.363 29.8001 266.682 29.7512 267.001 29.7064C267.301 29.6615 267.301 29.6656 267.862 29.9183C268.09 30.0243 268.327 29.9346 268.554 29.902C268.801 29.8653 269.024 29.8654 269.212 30.0243C269.401 30.1833 269.628 30.1751 269.87 30.1425C270.098 30.1099 270.33 30.0203 270.562 30.1303C271.094 30.3831 271.094 30.3871 271.423 30.3382C271.902 30.2689 272.376 30.2037 272.86 30.1425C272.923 30.1344 273.005 30.1833 273.068 30.2159C273.203 30.2893 273.32 30.4116 273.465 30.4401C273.61 30.4727 273.779 30.4238 273.934 30.3994C274.432 30.3219 274.466 30.2934 274.8 30.5624C275.081 30.7826 275.429 30.4646 275.69 30.7173C275.84 30.86 276.043 30.9742 276.324 30.9049C276.556 30.8478 276.798 30.8315 277.04 30.7989C277.422 30.7459 277.422 30.75 277.906 30.9946C277.969 31.0272 278.051 31.0679 278.114 31.0598C278.433 31.0271 278.757 30.9986 279.067 30.9253C279.43 30.8396 279.662 30.9946 279.933 31.1454C280.146 31.2636 280.397 31.1658 280.625 31.125C280.872 31.0842 281.094 31.0964 281.278 31.2554C281.471 31.4185 281.699 31.3981 281.941 31.3655C282.168 31.337 282.4 31.2432 282.632 31.3573C283.131 31.6101 283.131 31.6101 283.494 31.5612C283.813 31.5163 284.132 31.4674 284.452 31.4348C284.514 31.4267 284.592 31.4797 284.655 31.5163C284.79 31.5897 284.906 31.712 285.051 31.7406C285.197 31.7691 285.366 31.7161 285.525 31.6957C285.685 31.6754 285.854 31.6142 286 31.6387C286.145 31.6631 286.28 31.765 286.396 31.8547C286.532 31.9607 286.658 31.9729 286.841 31.9322C287.074 31.8792 287.315 31.8669 287.553 31.8384C287.683 31.9159 287.819 31.9933 287.944 32.0789C288.075 32.1686 288.215 32.1604 288.394 32.1319C288.989 32.0341 288.994 32.0463 289.492 32.2991C289.72 32.4132 289.957 32.3194 290.184 32.2909C290.426 32.2583 290.654 32.242 290.842 32.4051C291.026 32.56 291.254 32.5803 291.495 32.5314C291.65 32.4988 291.815 32.4784 291.974 32.4662C292.047 32.4621 292.134 32.4784 292.187 32.5111C292.444 32.6823 292.695 32.8372 293.048 32.7271C293.358 32.7597 293.513 33.094 293.885 33.0288C294.2 32.9717 294.529 32.9594 294.838 32.8861C295.124 32.8208 295.327 32.935 295.472 33.0777C295.733 33.3305 296.101 32.988 296.362 33.2367C296.512 33.3794 296.706 33.4935 296.996 33.4324C297.315 33.3671 297.417 33.4527 297.509 33.7096C297.562 33.8563 297.552 33.9746 297.456 34.0887C297.359 34.2069 297.253 34.1866 297.098 34.052C296.919 33.9012 296.706 33.8726 296.449 33.9052C296.198 33.9378 296.043 33.7259 295.835 33.6444C295.627 33.5588 295.38 33.7014 295.163 33.5914C294.65 33.3345 294.65 33.3345 294.301 33.3835C294.064 33.4161 293.818 33.4324 293.585 33.4894C293.31 33.5588 293.131 33.4324 292.942 33.3182C292.874 33.2774 292.806 33.2 292.748 33.2041C292.192 33.2652 291.631 33.3223 291.079 33.4242C290.789 33.4772 290.634 33.3305 290.441 33.2285C290.373 33.1919 290.3 33.1185 290.242 33.1266C289.763 33.1837 289.289 33.2571 288.81 33.3264C288.718 33.4364 288.617 33.5424 288.53 33.6606C288.438 33.7829 288.312 33.8359 288.128 33.8319C287.824 33.8319 287.524 34.0031 287.219 33.787C286.904 33.5669 286.88 33.5791 286.575 33.6321C286.188 33.7014 285.777 33.6851 285.414 33.8441C285.351 33.8726 285.284 33.9501 285.284 34.0071C285.279 34.0438 285.38 34.0968 285.443 34.1295C285.656 34.2273 285.903 34.0846 286.116 34.1865C286.256 34.2518 286.372 34.3496 286.512 34.4189C286.57 34.4474 286.658 34.4434 286.735 34.4393C286.817 34.4352 286.895 34.4067 286.972 34.4108C287.045 34.4148 287.122 34.4393 287.18 34.476C287.446 34.6309 287.727 34.7736 287.964 34.957C288.196 35.1364 288.414 35.0141 288.646 35.0059C289.575 35.2913 289.575 35.2954 290.199 35.2057C290.354 35.1853 290.513 35.1608 290.673 35.1649C290.741 35.1649 290.804 35.2383 290.871 35.279C291.065 35.4013 291.249 35.5114 291.52 35.4462C291.752 35.3891 291.999 35.3769 292.236 35.3402C292.555 35.2953 292.555 35.2954 293.097 35.5522C293.232 35.6174 293.377 35.6093 293.552 35.5767C293.702 35.5481 293.856 35.6093 293.963 35.7275C294.006 35.7764 293.992 35.8579 294.006 35.9272C293.527 35.9925 293.044 36.0373 292.579 36.1352C292.279 36.1963 292.144 36.021 291.945 35.9272C291.878 35.8946 291.805 35.8253 291.742 35.8335C291.268 35.8946 290.794 35.9639 290.32 36.0454C290.262 36.0536 290.189 36.1474 290.184 36.2044C290.175 36.3104 290.296 36.4123 290.47 36.4083C290.702 36.4042 290.929 36.3349 291.137 36.502C291.312 36.6488 291.529 36.714 291.786 36.6488C291.94 36.6121 292.105 36.6121 292.26 36.5795C292.671 36.4817 293.043 36.502 293.353 36.7792C293.59 36.8526 293.822 36.7833 294.05 36.7466C294.219 36.7181 294.384 36.6895 294.505 36.767C294.761 36.9301 295.013 37.0931 295.366 36.9831C295.748 37.0972 296.038 37.3377 296.358 37.5334C296.507 37.6272 296.624 37.6802 296.798 37.619C296.87 37.5946 296.957 37.5946 297.035 37.5823C297.194 37.5619 297.364 37.5008 297.509 37.5252C297.654 37.5538 297.775 37.672 297.906 37.7454C297.969 37.7821 298.041 37.8432 298.104 37.8391C298.346 37.8188 298.583 37.778 298.82 37.7454C299.057 37.7169 299.294 37.6883 299.531 37.6598C299.729 37.7658 299.933 37.8718 300.131 37.9778C300.45 37.9329 300.77 37.8881 301.084 37.8473C301.437 37.7984 301.437 37.8025 301.945 38.0552C302.173 38.1694 302.414 38.096 302.632 38.043C302.995 37.9574 303.237 38.1123 303.493 38.2754C303.547 38.308 303.643 38.3284 303.706 38.312C303.958 38.255 304.175 38.2998 304.359 38.4506C304.49 38.5566 304.621 38.6056 304.78 38.5852C305.337 38.5077 305.893 38.4262 306.449 38.3569C306.517 38.3487 306.594 38.3854 306.657 38.418C307.151 38.6667 307.156 38.6789 307.518 38.6137C307.842 38.5566 308.142 38.5322 308.399 38.7564C308.452 38.8053 308.534 38.8746 308.592 38.8705C308.989 38.8298 309.391 38.7849 309.783 38.7156C309.962 38.683 310.087 38.6953 310.228 38.789C310.407 38.9072 310.566 39.0499 310.861 38.9969C311.679 38.8461 311.684 38.8705 312.651 39.1518C312.719 39.1722 312.811 39.1396 312.888 39.1233C313.053 39.0825 313.174 39.1396 313.319 39.2334C313.643 39.4453 313.653 39.4331 313.962 39.3883C314.199 39.3516 314.446 39.3434 314.678 39.2823C315.036 39.1926 315.273 39.3516 315.54 39.5024C315.752 39.6207 315.999 39.5228 316.227 39.4861C316.473 39.4453 316.696 39.4575 316.88 39.6125C317.005 39.7184 317.141 39.7756 317.301 39.7552C317.857 39.6818 318.413 39.6002 318.97 39.5269C319.037 39.5187 319.12 39.5513 319.182 39.5799C319.734 39.8326 319.734 39.8449 320.281 39.7511C320.455 39.7226 320.6 39.7144 320.731 39.8C320.856 39.8815 320.992 39.959 321.122 40.0364C321.36 40.0079 321.601 39.9998 321.834 39.9508C322.013 39.9142 322.138 39.9305 322.279 40.0161C322.463 40.1262 322.617 40.3177 322.908 40.2239C323.058 40.1791 323.232 40.1914 323.382 40.1506C323.561 40.0976 323.682 40.1302 323.822 40.2362C323.996 40.3626 324.175 40.493 324.456 40.4278C324.765 40.3544 325.094 40.3422 325.409 40.2851C325.583 40.2525 325.704 40.2851 325.844 40.3911C326.018 40.5256 326.217 40.6113 326.488 40.5583C327.039 40.4563 327.044 40.4767 327.581 40.7335C327.716 40.7987 327.862 40.7906 328.036 40.758C328.186 40.7295 328.341 40.7906 328.447 40.9088C328.549 41.0393 328.539 41.1208 328.549 41.1901ZM285.438 4.42329C285.279 4.44367 285.119 4.46813 284.887 4.11346C284.872 4.05231 284.882 3.97895 284.848 3.92595C284.771 3.81589 284.65 3.73843 284.505 3.7262C284.244 3.7099 283.929 3.84848 283.934 3.95447C283.939 4.04415 284.021 4.12159 284.181 4.19497C284.248 4.22351 284.302 4.27244 284.364 4.30505C284.548 4.39881 284.693 4.58229 284.96 4.48853C284.911 4.23578 284.935 4.36215 284.96 4.48853C284.935 4.64344 285.008 4.75351 285.182 4.79835C285.23 4.81058 285.303 4.80241 285.342 4.77795C285.492 4.68826 285.516 4.56599 285.405 4.24394C285.385 4.29694 285.4 4.39067 285.443 4.41513C285.487 4.43959 285.593 4.41923 285.646 4.39069C285.782 4.31324 285.85 4.21131 285.816 4.1257C285.796 4.08086 285.704 4.02379 285.646 4.02379C285.545 4.02379 285.453 4.11347 285.438 4.42329ZM324.557 51.6996C324.204 51.777 323.798 51.7485 323.445 51.9075C323.382 51.936 323.319 52.0094 323.314 52.0665C323.309 52.1032 323.406 52.1562 323.464 52.1847C323.595 52.2499 323.74 52.2295 323.909 52.2092C324.165 52.1806 324.315 52.3681 324.514 52.4619C324.577 52.4904 324.659 52.5108 324.727 52.5027C325.119 52.4537 325.506 52.4008 325.897 52.3437C325.965 52.3315 326.038 52.3029 326.096 52.2662C326.289 52.148 326.27 52.0706 326.081 51.9809C325.873 51.8831 325.709 51.72 325.496 51.6425C325.191 51.5324 324.881 51.6792 324.557 51.6996ZM297.083 54.6755C296.846 54.7081 296.614 54.7407 296.377 54.7733C296.299 54.7856 296.217 54.7896 296.145 54.8059C295.995 54.8345 295.883 54.9201 295.811 55.0546C295.922 55.1606 296.058 55.2218 296.208 55.2095C296.445 55.1851 296.677 55.1321 296.914 55.1199C297.17 55.1035 297.32 55.287 297.519 55.3808C297.581 55.4093 297.659 55.4134 297.731 55.4174C298.089 55.4337 298.307 55.2218 298.239 54.9242C298.191 54.6918 298.007 54.5532 297.785 54.5818C297.552 54.6103 297.315 54.6429 297.083 54.6755ZM326.212 45.6744C326.27 45.6051 326.333 45.5562 326.362 45.495C326.449 45.2871 326.415 45.1322 326.255 44.9691C326.062 44.7694 325.825 44.9039 325.607 44.9243C325.554 44.9284 325.496 45.014 325.467 45.0669C325.448 45.1036 325.448 45.1811 325.477 45.2015C325.714 45.3646 325.965 45.5154 326.212 45.6744ZM284.243 33.6321C284.011 33.6647 283.774 33.6892 283.542 33.734C283.484 33.7463 283.431 33.8237 283.397 33.8767C283.334 33.9745 283.402 34.1091 283.6 34.1213C283.827 34.1376 284.064 34.0683 284.301 34.0357C284.601 33.9949 284.78 33.8441 284.669 33.7136C284.563 33.5873 284.418 33.5628 284.243 33.6321ZM29.5835 24.9204C29.7383 24.9001 29.8979 24.8837 30.0527 24.8552C30.1978 24.8267 30.3092 24.737 30.3818 24.6024C30.2608 24.4965 30.1253 24.4394 29.9753 24.4516C29.7383 24.4761 29.5061 24.5087 29.2739 24.5494C29.1287 24.5739 28.9885 24.6636 28.9546 24.8022C28.9208 24.9082 29.2448 24.9694 29.5835 24.9204ZM263.784 24.2926C263.847 24.3293 263.91 24.4027 263.973 24.4027C264.128 24.4027 264.287 24.3782 264.432 24.3375C264.495 24.3212 264.544 24.2478 264.573 24.1907C264.592 24.154 264.587 24.0888 264.558 24.0562C264.418 23.8605 263.857 23.9298 263.765 24.154C263.755 24.1948 263.779 24.2478 263.784 24.2926ZM248.521 1.96917C248.535 2.03439 248.54 2.09961 248.559 2.16484C248.598 2.28713 248.705 2.37684 248.859 2.43799C248.98 2.33607 249.043 2.22194 249.038 2.09965C249.034 2.03442 249.019 1.96915 249 1.90393C248.961 1.78163 248.855 1.69198 248.7 1.63083C248.579 1.72867 248.521 1.84279 248.521 1.96917ZM337.392 55.3848C337.349 55.4378 337.305 55.4908 337.257 55.5398C337.387 55.658 337.508 55.6947 337.6 55.6294C337.658 55.5887 337.692 55.5275 337.736 55.4745C337.605 55.3563 337.489 55.3237 337.392 55.3848ZM334.383 55.9393C334.446 55.9759 334.504 56.0249 334.572 56.0493C334.683 56.0901 334.785 56.0208 334.862 55.874C334.799 55.8373 334.741 55.7884 334.673 55.7639C334.562 55.7232 334.46 55.7925 334.383 55.9393ZM336.289 55.1933C336.255 55.2911 336.323 55.3726 336.502 55.4419C336.546 55.3889 336.604 55.34 336.633 55.2829C336.681 55.1892 336.599 55.1036 336.425 55.0383C336.376 55.0873 336.333 55.1403 336.289 55.1933ZM326.076 50.7987C326.043 50.8965 326.11 50.978 326.289 51.0473C326.333 50.9943 326.391 50.9454 326.42 50.8883C326.468 50.7946 326.386 50.709 326.212 50.6438C326.164 50.6927 326.12 50.7457 326.076 50.7987ZM312.163 21.9527C312.119 22.0057 312.076 22.0587 312.027 22.1076C312.158 22.2258 312.279 22.2625 312.371 22.1972C312.429 22.1565 312.463 22.0953 312.506 22.0423C312.376 21.9241 312.26 21.8915 312.163 21.9527ZM298.834 6.64909C298.951 6.67763 299.047 6.62058 299.13 6.46975C299.067 6.43306 299.009 6.38413 298.941 6.35967C298.83 6.3189 298.728 6.38823 298.651 6.53499C298.714 6.57575 298.776 6.6124 298.834 6.64909ZM291.757 5.6911C291.713 5.7441 291.67 5.7971 291.621 5.84602C291.752 5.96424 291.873 6.00091 291.965 5.93569C292.023 5.89492 292.057 5.83377 292.1 5.78078C291.97 5.66255 291.853 5.63403 291.757 5.6911ZM243.76 1.96509C243.717 2.01808 243.673 2.07108 243.625 2.12C243.755 2.23822 243.876 2.2749 243.968 2.20967C244.026 2.16891 244.06 2.10776 244.104 2.05476C243.973 1.93654 243.857 1.90801 243.76 1.96509ZM4.7749 35.1323C4.71201 35.0956 4.64918 35.0589 4.59112 35.0182C4.45082 35.1282 4.4073 35.2301 4.4847 35.3076C4.53308 35.3565 4.60559 35.3851 4.66849 35.4218C4.81362 35.3117 4.84747 35.2138 4.7749 35.1323Z" fill="#D7E8F5"/>
</svg>
